<svg id="Livello_1" data-name="Livello 1" xmlns="http://www.w3.org/2000/svg" width="423.33mm" height="423.33mm" viewBox="0 0 1200 1200"><rect y="-0.44" width="1197.78" height="1200" style="fill:#f5f2e7"/><path d="M701.84,226.24c-5.18-3-6.55-1.37-9.55-4.92s4.1-12.28,3.55-14.74-3,.28-5.73,1.37-3.28-.82-4.37-4.37S695.29,191,698,188.3s-4.91-1.37-7.36-3.83-5.19-2.18-8.19-2.45-4.1-6-1.91-6.28-1.1-4.37,2.45-6.28,7.65-4.09,8.73-5.46,4.65-4.36,6.83-4.91,3-3.82-3-6.55a35.93,35.93,0,0,0-20.2-2.73c-7.1,1.09-6.56-.55-14.47-1.64s-13.1.27-18-2.73a23.72,23.72,0,0,0-6-2.55c-.16,3.74-.37,8.14-.6,9.79-.41,3.06-2.66.2-5.52,1.84s-.62,3.27-.21,4.71-5.12.81-8,1-4.71,5.53-5.94,8.19-6.75,5.73-8.8,8.39,5.32,3.48,7.17,7.78,4.7,5.53,4.7,8-3.68,3.49-4.7,3.89-.83,8.19-.83,10.44,2.26,3.69,4.51,5.33,2.25,3.89,3.89,7,2.25,2.66,4.09,2.45,1.64,1,3.28,1.85,4.5-1.85,7.16-3.07.82.61,2.67,2,1-1.43,3.27-2,2.46,1.22,4.09,1.84,5.12-2.87,4.71-1.43c-.34,1.2,4,12.83,6.8,19.49a2,2,0,0,0,.57-.46c1.85-2.25,4.92-4.29,3.49-4.7s-7.58.82-5.94-.82,3.68-6.55,5.12-7.58,1.63,2.67,3.27,1.64.61-2.45,3.48-.82,15.36,2.87,13.92,4.3-3.89,5.12-2.66,4.71,10.24-4.1,10-5.53-1.64-5.11.41-5.32,7,1,8.39,2.87Z" style="fill:#fff"/><path d="M616,254.42c-2.25.41-9.42,7.58-7.78,8s4.5-1.63,7-3.27,27-14.54,29.89-16.58c2.64-1.89,10.84-.65,13.55-2.21-2.76-6.66-7.14-18.29-6.8-19.49.41-1.44-3.07,2-4.71,1.43s-1.84-2.46-4.09-1.84-1.43,3.48-3.27,2,0-3.27-2.67-2-5.52,3.89-7.16,3.07-1.44-2-3.28-1.85-2.45.62-4.09-2.45-1.64-5.32-3.89-7-4.51-3.07-4.51-5.33-.2-10,.83-10.44,4.7-1.43,4.7-3.89-2.86-3.68-4.7-8-9.22-5.12-7.17-7.78,7.57-5.73,8.8-8.39,3.07-8,5.94-8.19,8.39.41,8-1-2.66-3.07.21-4.71,5.11,1.22,5.52-1.84c.23-1.65.44-6,.6-9.79a42.9,42.9,0,0,0-11.17-1.27,20,20,0,0,1-9.43-2.55c-2.41,2.49-4.56,4.72-5,5.21-1,1.23-2-.61-3.28-1.43s-4.3,1.64-5.93,2.66-3.9,1.23-4.3-1.23-4.3-4.09-6.55-4.91-3.28,9.21-4.3,11.87-12.08,2.25-13.92,3.69,2,1.43,3.68,4.91-2.25,2.87-2.25,5.12-1.84,2.25-3.28,3.48,3.08,7,3.08,8.6,4.7,2.86,4.7,5.11,1,1.64,2.46,3.48-.2,3.89-3.89,5.53-11.46,3.07-13.31,3.89.82,3.07-.2,4.3-1.64,7.57-4.71,7.57-3.89-3.27-5.53-4.7-6.14,2.45-10,3.68-2.25,3.69-3.47,5.12-2.26-1.43-3.69-1.64-7.58,15.56-9.42,20.47-7.57,2-9.62,1.64-4.71,1.64-6.76,3.07-2-1-4.09-3.27.82-6.76.2-9.42a2.82,2.82,0,0,0-1.4-1.65,13.76,13.76,0,0,1-2.28,4.52c-1.44,1.23-8.6,12.48-8.6,16.78s2.25,6.55,1.64,9-1.84,7.37-2.87,7a12.39,12.39,0,0,1-3.71-3c-.29.7-.59,1.37-.79,2-.62,1.84,3.27,1.84,5.32,3.89s-.82,1.84.21,5.32-1.64,4.09-.21,5.53,4.51-2.67,6.14-.21,11.26,8.81,12.28,9.62.42,2.46,1,4.51,1.23.82,3.07,1.43.21,2.25,2,4.1,3.68-1,6.75-1,1.85,2.66,1.85,4.3,5.32,3.28,6.55,6.14c.66,1.55,3,3.83,5.55,6a3.67,3.67,0,0,1,2.43.78c1.84,1.84,7-1,9.21,1.22s2,4.51,4.51,4.51,10.44-8.39,15.14-8.6,19,.61,20.68,2.87,3.48,3.68,6.35,2.86,4.71-3.27,5.12-1c.23,1.29,1.14,5.64,1.88,9.87,1.43,1.53,4.94,5.8,6.1,4.25s-.2-4.5-.61-6.55,3.48-5.93,3.48-4.5-1.84,9,.2,7.78,4.3-5.53,4.5-8,3.49-4.3,2.46-6.15-3.48,0-4.71-2-2.86-2.87-5.52-5.12-6.35-2.05-6.35-3.89,2.66-5.53,2.25-7.37-3.07-5.32-3.89-4.91S601.44,285,600,283s-2.66-9.83-.62-13.11,1.44-10.85,3.9-12.89,5.52-4.1,7.78-4.51,7.36-5.12,8.19-4.71,2.86,2.26,1.83,3.28S618.25,254,616,254.42Z" style="fill:#fff"/><path d="M629.92,401c-3.68-3.69-21.7-21.29-21.91-25.39s-5-17-5.73-21.49c-.41-2.66,1.23-7.58.21-9.63s-7.17,2.67-9.42.41-1.84-7.57-.41-8.39,6.35,1.43,8.19,1.43-.61-4.91-.61-7.78c0-4.61,3.07-13.1,4.3-11.87l.24.25c-.74-4.23-1.65-8.58-1.88-9.87-.41-2.25-2.26.2-5.12,1s-4.71-.61-6.35-2.86-16-3.07-20.68-2.87-12.69,8.6-15.14,8.6-2.26-2.25-4.51-4.51-7.37.62-9.21-1.22-8.19,0-12.28.61-3.28-.82-7.58-2.25-11.26,3.07-15.35,4.09-9.83-3.48-9.83-4.5-3.27-2.87-4.91-2.87-4.3,5.33-6.55,7-8.19-1.84-10.85-3.48-1.44-2-1.84-3.89-2.66-.2-4.71,1-7.78-5.73-10.85-7.17S452.84,298,450,298s-2.45-9-4.5-10.24-3.69-.62-5.53.41-1.23-1.43-2.86-1.64.61,3.07-.41,4.1-1.23-.42-2.66-.82-1.44,1.22-1.85,2.66-2.86-3.07-5.32-3.69-1.84,2.66-2.66,3.89-3.07-1.43-4.3-1.84,0-2.66-1-4.5-1.22.61-2.66,1.22-.41-.61-2.45-1.63-.82,1.63-2.87,3.48-4.71-1-7,0-8.39,14.12-9.21,15.76,2.66,4.09,3.28,7.57-1.44,2.67-4.3,5.12.4,5.32.2,8.81c-.13,2.2-2.56,1.94-5.1,1.09-.67,1.27-1.71,2.69-2.27,3.82-.27.58-.52,1.17-.73,1.77,1.62,1,3.15,2.47,4.21,2.94,1.84.81,1.23-.41,2.46-1.23s3.89,2.66,5.32,3.48,3.48-1.44,3.68-.21,2.67,1.64,4.71,4.1-.61,4.5-2.45,5.73-2,5.73-.82,7.58,5.52-2.26,8.19-2.05c2.28.17,5,2.33,6.79,5.8,2.87-.64,5.41-1.68,6.65-3.07,2.18-2.46,5.18-6.55,8.46-6.55s10.1,2.18,9.28,3.82-1.36,3.82,0,5.18,4.37,4.1,6.28,4.1,6.28,7.91,9.56,7.64,2.72-2.18,6.27,0,2.73,3,7.1,4.37,3.82,4.64,5.18,7.37a4.85,4.85,0,0,0,6.41,2.4l.42-.22c2.45-1.36,6.55-4.09,10.1-1.64s10.64,10.65,12.83,8.74,3-6.55,5.46-5.73-2.46,3.27,1.09,3.82,4.64-1.64,8.46-1.09,9.28,0,8.46-1.1-5.46-3.55-2.46-4.36,9-3.28,9.56-4.64,3.55-2.19,4.64-1.37,1.63,6.55,6,6.55,6-1.64,6.55,0-2.18,4.1.28,4.1,9.28-1.37,9.28-.28-4.37,10.65-5.19,10.65-1.09,3,.55,5.73.27,7.1,3.27,8.46,7.37,6,9.56,6,8.19,4.09,9.55,4.64,5.73,1.36,7.1-.27a9,9,0,0,1,2.66-2,1.46,1.46,0,0,1,.07-.19,25.5,25.5,0,0,0,1.63-8.19c0-2.18-1.09-4.91,1.64-4.64s4.64,1.37,6,.28,7.91-4.1,9-4.1a6.69,6.69,0,0,1,1.65.43c1.87-1.81,4.24-3.61,5.2-2.92s1.2,4,.78,6.76c1.76,2.19,4.4,5.27,4.93,4.74.82-.82,2.46-3,3-1.36s5.45,3.54,6.82,2.18c1-1,2.92-5.48,3.84-10.17A9.88,9.88,0,0,1,629.92,401Z" style="fill:#fff"/><path d="M715.29,490.87c0-3.28-17.4-37.06-18-40.54s.2-6.34-.61-7.57-8-6.14-9-5.73-3.89.41-6.76-1.44-16-10.85-18-13.1-19-15.76-21.5-17.6c-1.28-1-3.36-1-5.57-1.3-.92,4.69-2.83,9.16-3.84,10.17-1.37,1.36-6.28-.55-6.82-2.18s-2.19.54-3,1.36c-.53.53-3.17-2.55-4.93-4.74-.27,1.83-.87,3.39-1.84,3.69-4.48,1.36-7.59-3.28-6.43-5a18.54,18.54,0,0,1,2.29-2.56,6.69,6.69,0,0,0-1.65-.43c-1.09,0-7.64,3-9,4.1s-3.28,0-6-.28-1.64,2.46-1.64,4.64a25.5,25.5,0,0,1-1.63,8.19c-.82,1.64.82,2.46,3,4.1s6-1.92,7.64-2.73,4.37,3.82,5.19,6.27-3.55,2.19-4.64,2.46a26.28,26.28,0,0,0-6.82,3c-2.46,1.64,1.36,2.73,0,4.92l-.19.25c2.84.16,5.08.47,5.65.84,1.63,1.09,3-3,5.45-1.64s0,4.1-1.91,6,1.91,1.36,4.64,3,3-2.18,5.19-2.18,9.28,9.27,10.65,11.19,2.18-1.37,3.27-1.37,2.46,1.37,4.37,1.64.55-1.64,2.45-4.1.28,7.38,1.64,11.74,5.73,12.56,6,15.56-1.37,2.46-1.64,4.1,1.91,1.63,3.82,3.27,0,10.1,0,12.29,4.64,5.45,5.18,8.18,2.7-1.34,5.7-1,6.82,6,9,8.46,3.28-2.45,4.65-1.36c.83.66,1.46,4.18,1.69,8.06,1.31.23,2.29.87,3.49,2.58,1.91,2.73,4.1,6,7.65,4.1s1.36-3.82,4.64-4.64.81-7.37,5.73-7.1,7.37,2.46,9.82-1.09.55-5.19,4.92-4.64c2.74.34,6.14-2,11.07-4.69C716.6,498.55,715.29,492.56,715.29,490.87Z" style="fill:#fff"/><path d="M730.78,622c1.09-2.18,9.28-2.73,9.28-4.91s-4.37-7.1-3-7.91,4.09.81,4.64-.82,5.18-5.74,6-5.19,1.36,5.19,3.55,4.37,5.19-1.64,6.28,1.36,1.09,9.56,3.28,8.19,3.54-5.18,6.27-7.1,5.19-7.64,5.19-10.09,8.19-5.74,8.46-8.47a32.7,32.7,0,0,1,1.53-4.93c-2.24-1.22-4.33-2.46-4.33-4.55,0-3.07-.82-4.92-4.3-6.55s-13.1-6.14-14.94-9.62a24.09,24.09,0,0,0-7.58-9c-3.68-2.66-19.45-13.72-25.18-28.46-2.78-7.14-5.36-15.38-7.28-22.36-4.93,2.68-8.33,5-11.07,4.69-4.37-.55-2.46,1.09-4.92,4.64s-4.91,1.36-9.82,1.09-2.46,6.28-5.73,7.1-1.1,2.73-4.64,4.64c-2.36,1.27-4.12.24-5.59-1.38a12.57,12.57,0,0,0-.15,3c.55,1.91,2.73,1.91,4.64,3.54s-.27,2.73-2.72,5.46-9.83-2.45-11.2-.82-2.46,1.37-4.37,2.46,1.1,2.18,2.74,5.73-2.74,4.1-3.55,5.74,2.72,3,3.55,4.64-.28,1.36-1.37,2.72,3.28,3.55,4.37,6.83,3.27,4.91,4.36,6.55,4.64,4.09,5.74,5.18-2.73.82-3.55,3.28-3.55,2.19-7.1.55-9.28-4.92-10.1-2.19-3.55,4.92-3.82,7.1,2.73,6.82,4.37,6.82,10.92,4.1,12.83,5.46,6.82,3,7.91,5.46-1.09,1.91-1.09,5.46,4.37,1.37,6.55,2.19,4.91,4.36,7.1,6,7.92-5.19,9-3.82,2.45.27,3.27.27,2.18,2.46,3.28,4.64,2.18.27,3.82,0,1.91.55,3,1.64,2.73-.27,5.19,1.64c1.17.91,2.34,3,3.25,5.22C726.34,625.65,730.13,623.31,730.78,622Z" style="fill:#fff"/><path d="M728,654.51c4.37,1.36,9,3,7.1-.28s-4.09-3.54-2.73-6.27,1.1-5.46,4.1-4.64,6,.27,8.73.81,14.2,5.46,16.65,7.37,6.28,6.83,8.74,4.64,3-4.91,7.37-4.91,6.55-3.55,7.92-3.27c.78.15,7.24-.51,14.75-3.22-2.75-1.3-5.34-2.85-5.47-5-.28-4.37-1.64-11.2,1.63-11.2s-.82,3.28,4.37.82,11.73-4.36,8.46-7.09-5.19-4.1-3.82-6.28-.27-5.19,1.36-7.64c.76-1.13,1.39-4.74,1.91-8.39a9.71,9.71,0,0,1-2.11-1c-5.12-3.48-7.37-5.94-10.44-6.76s-8.39-1.84-11.26-3.89a29.31,29.31,0,0,0-3-1.79,32.7,32.7,0,0,0-1.53,4.93c-.27,2.73-8.46,6-8.46,8.47s-2.46,8.18-5.19,10.09-4.09,5.74-6.27,7.1-2.19-5.18-3.28-8.19-4.1-2.18-6.28-1.36-2.73-3.82-3.55-4.37-5.46,3.55-6,5.19-3.28,0-4.64.82,3,5.73,3,7.91-8.19,2.73-9.28,4.91c-.65,1.29-4.44,3.63-7.94,5.5a20.52,20.52,0,0,1,1.66,6.24c0,2.46,3.28,3.82,3.82,6.55.3,1.48-2.12,4-4.75,6.16C724.37,650.33,725.69,653.77,728,654.51Z" style="fill:#fff"/><path d="M1066.79,764.78c-.41-1.84-4.92-6.55-5.53-10s-3.48-7-8.8-11-4.92-6.56-8-9.42-15.57-5.73-15.77-9,.82-2-.61-4.3-.21-5.32-2.67-5.32-4.71-.41-5.52-1.84-3.89-.41-7-2.67-11.88-4.91-13.72-6.14-13.51-3.07-16-6.75S973,691.08,971.8,689s-12.9-9.21-15.76-10.44S917.34,668,915.7,666.31s-46.67-19.86-48.31-26.2-4.09-10.24-.41-12.29,9-5.11,11-8,6.76-5.94,8-9.21-1.84-13.51-11.46-13.72-24.78,4.3-27.23,2.87-5.94.61-7,1.23-5.94,3.27-8.8,3.27-11.88,0-10.24-.82,7-1.43,4.71-2.25c-2-.72-11.24.77-16.93-1.22-.52,3.65-1.15,7.26-1.91,8.39-1.63,2.45,0,5.46-1.36,7.64s.54,3.55,3.82,6.28-3.28,4.64-8.46,7.09-1.09-.82-4.37-.82-1.91,6.83-1.63,11.2,10.91,6.27,12,8.73-1.09,5.46-1.9,6.82.54,3,3.54,4.37.55,1.64,1.37,2.73,3-.27,4.91-.54,5.19,4.09,5.73,5.46-1.36,5.18-4.36,7.36,2.45,3.55,4.36,4.92,7.37.27,9.83,0,2.45,2.45,6,4.09,6.56-3,9.28-3,8.19-2.46,12-.27,4.92-5.46,6-3.28,6,.82,6.55,3,3,1.64,6.28,4.92-1.92,4.91-3,6.82,5.73,3.28,7.64,4.91,6.28-2.45,7.91,0,15,18,16.38,19.38,4.64-2.72,6.82-4.91,1.37.55,2.74,1.37,3.54-2.73,4.91-2.73,9.55,3.55,9,4.36.27,3.82.54,4.64-.27,3.28-.27,4.92,2.45,10.1,2.18,13.1,4.91.55,6.82,4.37a22.15,22.15,0,0,0,3.17,4.23c3.7-5.42,7.85-10.56,9.87-11.47,4.1-1.84,8.6-.2,11.67-.2s4.71,1,6.35.41,5.73-1.23,5.32.2-5.12,2-5.12,3.07a4.72,4.72,0,0,1-1.43,3.69c-1.23,1-1.85,2.46.41,2.46s8.39,4.29,13.51,5.73,7.57,3.89,10.65,2.66,25.79-.41,26.4,2.46.41,5.52,2.87,7.57,8.8,4.91,6.75,7.78-4.5,2.46-2.86,4.09,3.28,1.85,3.28,3.07-1.44,4.1,0,4.92,5.32,5.93,7.36,7.16,7.17,5.94,8.81,5.32,3.89-1,5.73.41,4.5,3.89,6.76,1,.61-18,3.27-20.47,4.3-3.48,4.3-6.15S1067.2,766.62,1066.79,764.78Z" style="fill:#fff"/><path d="M821.94,1113.07c-1.63.82-3,2.46-4.64,1.37s-4.91-5.74-6.27-5.19-.82,3-3,1.91-6.55-3.55-8.46-3.27-3.27,3-5.73,2.73-5.73-1.1-7.1-1.1-3-3-7.64-4.09-11.46-2.73-11.46-4.91-5.74-15.83-12.83-21-13.38-8.46-18-8.46-10.1,2.18-12.55,2.18-4.91-3.82-7.92-4.64-7.91-1.91-12.55-6.28-5.74-6.28-8.19-6.82-7.65.27-9.56-2.18-9-6.55-11.46-8.19-6-9.83-9.56-9.83-8.73.27-9.82-.82-6.55-7.64-10.37-7.64-14.47,2.73-18.56,1.36-5.46-9.28-8.19-9.82-6-3.28-6.28-5.74-4.64-6.55-3-7.36.81-4.1,3-6-1.09-2.46,0-5.19a22.62,22.62,0,0,0,1.91-8.73c0-3.28,4.37-4.09,5.73-5.73s6.28-1.37,7.64-3.55,5.74-2.73,5.19-4.37-2.73-3.55,0-3.55,3.55,3,4.92,4.92,2.72,7.09,4.9,7.64,3.83,3.82,6.28,2.19,10.38-2.46,10.38-5.47-2.19-3.55-.55-5.73.55-4.64,4.1-4.37,6.27,3,8.18,1.37,4.65-5.73,6.83-4.64,5.46,10.92,7.1,11.46,6.28-2.18,7.91-1.64.55,5.74,3.55,7.1S707,988.6,713,987.51s12-6.27,14.74-6.27,8.46,3.54,11.73,2.45,19.11.82,21.3-1.91,9.82-1.91,12.55-3.55,7.64-.82,8.46-3,4.64-7.37,7.65-7.37,7.64-.27,10.64-2.18,2.73,2.45,8.46,2.72,4.1,4.65,7.37,3,9-7.1,9.82-8.47,4.37,1.65,7.1.28,8.74-7.92,13.65-9.55,4.91,1.63,7.37,1.63-.55,1.64-2.18,3,.54,7.37-.82,8.73-3.28,7.65-8.19,13.38-19.11,25.65-18.56,28.11,1.09,7.1-.55,9.28.82,5.73-1.09,7.92-3.28,4.36-5.19,9.82-.81,13.38.83,14.2,7.36,1.36,8.73,3.27,4.36,3.28,2.45,4.1-4.91.54-4.91,3,1.09,4.64,2.46,5.46.54,4.36,3,5.46,7.1,7.09,5.73,7.09-4.09-.81-4.91,1.37-1.91,4.64-3.82,4.91-6,6-6,8.46-3,7.37-2.18,10.1S823,1112.53,821.94,1113.07Z" style="fill:#fff"/><path d="M909.29,775.15c-1.64,4.92-.82,7.65-2.73,10.1s-.27,5.19-.82,8.19-8.19-3.82-10.91-1.64-6,3-9.56,3.55-6.28-5.73-7.92-8.19-3.27-1.36-5.45-.27-2.19-2.46-5.19-1.09c-1.35.61-4,3.48-7.06,7.33,2,2.86,3.84,6.79,3.24,7.68-.82,1.23-1,5.12.41,8.6s.61,7.58,2.25,9.83,5.12,10.64,6.14,11.46,6.14,4.5,10,16.79,3.89,21.49,4.5,24.77,4.72,13.3,7.58,14.74,4.5,2,4.5,5.52.62,10.85-1.63,13.31-5.12,5.73-7,5.53-4.71-1.64-7.17-.61-12.69,7-12.28,9.2,8.8,8.4,7.57,10.65-5.93,13.31-6.76,17.61-3.47,8-7.57,9.21-7.17-.21-7.37,4.09-.61,8.4,0,11.26,3.69,6.14,2,7.17-3.07,2.25-.21,5.12,8,5.32,12.08,4.91,18.84-.2,20.68-1.43S897,974,897,970.11s10.45-16.37,12.29-18.22,9.62-4.3,14.33-9.82,3.48-12.29,2.46-20.89-3.08-11.26-1.85-14.53,10.85-11.87,17.4-15.15,13.93-5.12,15.36-4.3.82,3.48,2.86,2.46,2.46-1.64,3.69-1.44,1.43,2.66,3.68.82,3.9-3.48,3.9-5.52-.83-3.69.81-4.92-4.3-4.09-3.89-5.73-1.64-9.21.41-12.08-4.09-5.11-3.68-8,1.63-9.62,2.86-10.64-8.6-4.51-8.8-7-11.67-5.11-14.74-9-6.76-5.53-8-5.53-13.31,0-15.77-2.46-2-4.91-2-6.55-3.28-1.84-2.67-6.14,9-16.17,10.24-17.4-4.51-8.39-2.05-12.28a37.67,37.67,0,0,1,2.53-3.48C918.71,772.05,910.2,772.41,909.29,775.15Z" style="fill:#fff"/><path d="M724.5,720.56c-1.26,1.51-5.18,2.73-7.09,1.09s-1.64-4.91.81-5.18S725.86,718.92,724.5,720.56Z" style="fill:#fff"/><path d="M862.34,761.51c-2.73-3.55-5.73-6-6-9.83s-4.63-2.46-6.55-4.64-3.55-3.55-6-6-.27-3.27-1.37-6.82-7.91-3-6.82-5.46,5.73-2.73,3.82-5.46-8.46-3.82-9.28-7.64-3-15-.55-15.29,4.65,3.28,6.56,1.64,9.82-6.82,8.46-11.46c-.52-1.77-1.63-4.67-2.7-7.89-1.61,1-3.34,1.93-5.22,1.06-3.55-1.64-3.55-4.37-6-4.09s-7.92,1.36-9.83,0-7.37-2.73-4.36-4.92,4.91-6,4.36-7.36-3.82-5.74-5.73-5.46-4.09,1.63-4.91.54,1.64-1.36-1.37-2.73-4.36-3-3.54-4.37,3-4.36,1.9-6.82c-.56-1.26-3.63-2.38-6.53-3.76-7.51,2.71-14,3.37-14.75,3.22-1.37-.28-3.55,3.27-7.92,3.27s-4.91,2.73-7.37,4.91-6.28-2.73-8.74-4.64-13.91-6.82-16.65-7.37-5.73,0-8.73-.81-2.73,1.91-4.1,4.64.82,3,2.73,6.27-2.73,1.64-7.1.28c-2.35-.74-3.67-4.18-4.47-8a37.81,37.81,0,0,1-5.62,3.94c-2.18,1.09-.27,9.28-.27,12,0,1.9-6,5-10.86,7.15,3,2.4,9.39,9,11.33,13.12,2.25,4.71,3.28,8,4.71,9.42s7.16,9.41,7.37,12.48-1.64,5.53.21,7.37,4.7,2.87,4.09,1.23-1.64-4.71.61-4.09,6.56,4.09,7.17,3.07,2.45-5.32,5.94-4.1,7.78,8.4,9.21,8.19,4.09-.61,4.71,2.66-9.83,9.83-9.83,12.49,7.78-3.89,10-3.89,6.55,3.07,7.78,2.25,2.66-3.89,4.71-3.68,4.3.61,5.94-.62,9.82,2,12.07,5.74,5.33,13.51,7.78,16.37,2.26,5.94-.81,7.78-1,5.53-2.46,6.56-2.26,4.29,0,4.29a10.12,10.12,0,0,1,6.75,3.28c1.23,1.64,2.87,4.09,6.56,3.48s10.43,4.5,12.07,8.39,1.85,2.46,4.51,4.51,7.57,2.86,8.6,1.23,6.75-7.58,11.25-7.17c2.15.2,4,2.16,5.57,4.38,2.59-4.54,5.16-9.32,3.92-11.34C854.42,769.42,865.07,765.06,862.34,761.51Z" style="fill:#fff"/><path d="M724.5,720.56c-1.26,1.51-5.18,2.73-7.09,1.09s-1.64-4.91.81-5.18S725.86,718.92,724.5,720.56Z" style="fill:#fff"/><path d="M334.17,893.07c-2.9-.48-4.64-6.83-7.65-6.28s-9.27,3.55-10.37,2.19,1.64-2.19,0-4.64-3.27-4.91-3-7.1-3.82-3.55-4.64-5.46-3.55-7.64-5.18-8.74-4.92-4.9-4.64-6.27,6.27-1.64,6.27-3.55a18.94,18.94,0,0,0-2.18-7.64c-1.09-1.64-3-3.55-1.91-4.37s3.55-1.91,2.18-4.37-3.82-3.82-1.09-4.91,6.28-3.55,6.28-8.46-2.46-18.84,0-18,3.28,5.73,4.09,3.82,6.28-14.19,4.37-16.37-5.46-3.55-6.82-3-.55,4.92-2.19,3.55-3.27-1.91-2.73-3.27-3-3.83-1.63-4.92,3-1.91,2.45-4.37-4.09-3.54-.82-3.54,7.92.27,7.37-4.64-2.45-5.74-1.64-9,2.74-6.55,2.46-9.28-6.82-3-6.82-6,1.64-6.82,1.09-9.82-5.73-6.55-5.73-9,.27-6-1.64-6-4.1,3.28-5.18,2.19.81-4.1-1.37-3.83-4.37,4.37-4.91,2.74,1.09-4.37,2.73-5.19,2.18-3.28,2.18-4.64-3.82-5.19-2.73-6.82.82-3.28,1.09-5.19,5.46-4.09,4.64-6.82-3-5.19-1.91-7.1,2.73-2.46,3,.27,1.37,7.37,3.82,9,8.47,2.18,11.47,3,7.37,1.91,11.19-.82,4.09-4.37,7.92-4.64,13.64-6,14.74-9.28,5.73-6.28,7.64-7.91,2.45-4.64,6.28-4.64,8.19-2.19,7.91-3.28-2.73-2.18-.27-3.27-3.27-4.1.27-4.1,5.19-1.36,6,0,1.63,5.46,2.73,5.46,4.37-1.91,5.46-.82,3.54,3,4.64,4.37.27,7.37,1.63,6.28,1.37-4.37,3.82-3.83,6.83,3,4.92,4.64-5.19,6.83-3.55,6.83,6-.3,6.55.54c2.73,4.58-1.09,4.37-2.18,6s-3.83,4.91-1.64,4.91,3.55-1.09,4.91-1.09-1.64,1.64,1.09,3.55,4.65,3.27,3.56,5.46-1.64,4.37-.83,6,1.92,7.65,3,7.92.54,10.1,2.73,10.92,3.82,5.18,2.73,7.09-3.28,11.74-4.64,12-10.38,7.64-10.38,12.28,4.1,13.37,6.28,15.56-.54,6-1.36,7.91-1.64,4.1-.55,6.28-1.91,4.91-2.18,7.37-.55,7.37,0,9.28-2.19,10.65-2.46,12.83-2.18,9.83-1.64,13.37-3,10.92-2.46,14.47,4.1,4.91,1.1,6-4.64,1.64-4.64,4.09.55,9.83-1.09,11.19-4.1,4.1-4.1,2.46.27-2.46-1.91-2.46-5.18.55-6.28-1.09-9.28-9.82-13.65-9-3.82,4.37-5.18,4.1-7.65-9.83-9-8.46,3,5.18,2.19,6-4.65,3.55-4.37,8.46,3.27,6.83,2.46,7.37-.83,3-2.19,4.37S335.81,893.34,334.17,893.07Z" style="fill:#fff"/><path d="M301.41,883.24c-2-.86-7.37-13.64-2.45-14.19s5.46,0,6.82,1.91S303.33,884.06,301.41,883.24Z" style="fill:#fff"/><path d="M291.86,869.05c-1.15,0-4.37-3.27-3-5.19s4.64-4.36,4.91-2.18S293,869.05,291.86,869.05Z" style="fill:#fff"/><path d="M299.78,685.08c-1.37-.55-3.28-.82-2.73-3.28s5.73-5.18,5.73-6.28,2.73-3.54,3.82-2.73,1.09,5.19,0,5.46-4.64.82-5.46,2.19S301.14,685.62,299.78,685.08Z" style="fill:#fff"/><path d="M301.41,883.24c-2-.86-7.37-13.64-2.45-14.19s5.46,0,6.82,1.91S303.33,884.06,301.41,883.24Z" style="fill:#fff"/><path d="M291.86,869.05c-1.15,0-4.37-3.27-3-5.19s4.64-4.36,4.91-2.18S293,869.05,291.86,869.05Z" style="fill:#fff"/><path d="M299.78,685.08c-1.37-.55-3.28-.82-2.73-3.28s5.73-5.18,5.73-6.28,2.73-3.54,3.82-2.73,1.09,5.19,0,5.46-4.64.82-5.46,2.19S301.14,685.62,299.78,685.08Z" style="fill:#fff"/><path d="M717.68,662.42c0-2.73-1.91-10.92.27-12s10.92-7.37,10.37-10.1-3.82-4.09-3.82-6.55-2.45-9.55-4.91-11.46-4.1-.55-5.19-1.64-1.36-1.91-3-1.64-2.73,2.18-3.82,0-2.46-4.64-3.28-4.64-2.18,1.09-3.27-.27-6.83,5.46-9,3.82-4.91-5.19-7.1-6-6.55,1.36-6.55-2.19,2.19-3,1.09-5.46-6-4.09-7.91-5.46-11.19-5.46-12.83-5.46-4.64-4.63-4.37-6.82,3-4.37,3.82-7.1,6.55.55,10.1,2.19,6.28,1.91,7.1-.55,4.64-2.18,3.55-3.28-4.65-3.54-5.74-5.18-3.27-3.27-4.36-6.55-5.46-5.46-4.37-6.83,2.18-1.09,1.37-2.72-4.37-3-3.55-4.64,5.18-2.19,3.55-5.74-4.64-4.64-2.74-5.73,3-.82,4.37-2.46,8.74,3.55,11.2.82,4.63-3.82,2.72-5.46-4.09-1.63-4.64-3.54a12.57,12.57,0,0,1,.15-3,28.56,28.56,0,0,1-2.06-2.72c-1.91-2.73-3.27-2.73-6.28-2.73s-1.36,4.92-1.36,7.37-1.91,3.55-5.73,4.92-7.37.54-9.28,2.73-6.28,0-6.83,2.18-8.46,6.82-10.64,8.19-2.19,1.09-1.36,2.46-1.37,2.45-3.55,3.54-5.19-1.91-5.74,1.1-1.91,3.82-3.82,5.18-5.46-1.36-7.91-1.36-.83-6-1.1-8.19-1.09-1.37-3.27-.82-2.73-1.64-4.1-.82-1.91,0-3.54-4.09,0-5.46-3.83-8.46-3.54-6.28-5.18-4.92-5.19,1.37-7.92,1.64-7.64-6-8.19-7.1,3.28-3.82,1.91-5.46a46.63,46.63,0,0,1-4.43-6.94c-1,1-1.94,1.84-2.39,2.3-1.36,1.37-4.64-1.36-6.28-.27s2.46,5.73,2.73,8.19-2.46,1.64-3.55,3,2.46,3.82,2.73,5.46-3.27,1.91-4.91,4.1-6.28,4.63-8.46,4.91-1.64,2.18-3.28,3.82,3.55,2.46,3,4.91-5.73,2.73-8.73,3.28c-1.53.27-2.78,2.32-3.88,5,5.49,2.33,12.52,6.26,14.32,9.47,2.86,5.12,5.73,13.72,7.16,16.18s4.3,9.41,6.56,9,3.47-1.22,6.55.82,13.51,6.55,16.17,12.49,5.53,15.15,6.34,15.56,13.31,7.37,18,13.3,10.44,16.79,11.67,16.18,1.23-3.07,4.5-.62,5.53,4.3,7.37,3.48,8.4.41,12.08,7.78,5.33,11.26,6.76,11.06,8.19-5.73,10.64-5.73,8.4-2.66,11.26-.82,17.2,10.44,16.58,7.78-2-3.08.41-4.51,7.58-.82,9.63.21a7.62,7.62,0,0,1,1.15.8C711.73,667.41,717.68,664.32,717.68,662.42Z" style="fill:#fff"/><path d="M463,522.53c-2.15-1.11-1.63-4.23-2.72-4s-1.37,2.19-2.32,1.64-4.1-.27-4.78.55-6.55,1.5-7.78.13-3.14-6,0-7.36,7,1.63,8.33,1,2.32-2.86,4.09-2,3.27,3.28,4.37,2,1.64-7.64,4.36-6.14.82,9.55-.41,9.55-2.31-.13-.81,1.91S468.33,525.26,463,522.53Z" style="fill:#fff"/><path d="M588.57,422.77c-1.37,1.63-5.74.81-7.1.27s-7.37-4.64-9.55-4.64-6.55-4.64-9.56-6-1.63-5.73-3.27-8.46-1.37-5.73-.55-5.73,5.19-9.55,5.19-10.65-6.82.28-9.28.28.27-2.46-.28-4.1-2.18,0-6.55,0-4.91-5.73-6-6.55-4.1,0-4.64,1.37-6.55,3.82-9.56,4.64,1.64,3.27,2.46,4.36-4.64,1.64-8.46,1.1-4.92,1.63-8.46,1.09,1.36-3-1.09-3.82-3.28,3.82-5.46,5.73-9.28-6.28-12.83-8.74-7.65.28-10.1,1.64a4.84,4.84,0,0,1-6.61-1.76c-.08-.14-.15-.28-.22-.42-1.36-2.73-.81-6-5.18-7.37s-3.55-2.19-7.1-4.37-3-.27-6.27,0-7.65-7.64-9.56-7.64-4.91-2.73-6.28-4.1-.82-3.55,0-5.18-6-3.82-9.28-3.82-6.28,4.09-8.46,6.55c-1.24,1.39-3.78,2.43-6.65,3.07a14,14,0,0,1,.78,1.77c1.64,4.51,10.65,7.78,11.87,9.62s-.41,5.12,0,6.56,1-.62,2.46-1.23.41,1.43.21,3.27,2.66-.41,4.5.41.82,3.28,1.84,5.12,4.91.61,4.71,2.25a37.06,37.06,0,0,1-1.89,5.8,4.86,4.86,0,0,1,1.89,1c1.84,1.63,13.31,17.19,13.31,22.11s1.84,27.84,3.27,30.91,5.32,6.14,7,10,4.3,11.05,6.76,14.13.61,23.13-1.23,24.56-2.66,3.69-1.23,5.94,2.87,2.45,4.3-.21,8.19-2,11.46.82,5.74,5.12,4.3,7.17-3.47,5.32-2.25,6.75a5.81,5.81,0,0,0,5.32,2.46c2.67-.21,10,3.07,11.47,5.94s1.43,5.93,3.69,6.34,3.47,2,5.11,4.92,1.64,3.27,3.89,4.91,2.46,8,.21,9.83-4.71-.82-4.91,2.25,3.27,7.16,5.11,5.73,1.43-6.55,5.53-5.12,5.53,2.25,7.57,1.64c.76-.23,3.5.6,6.77,2,1.1-2.67,2.35-4.72,3.88-5,3-.55,8.19-.82,8.73-3.28s-4.64-3.27-3-4.91,1.09-3.55,3.28-3.82,6.82-2.73,8.46-4.91,5.18-2.46,4.91-4.1-3.82-4.09-2.73-5.46,3.83-.55,3.55-3-4.37-7.1-2.73-8.19,4.92,1.64,6.28.27,6.82-6.28,7.1-7.91-1.64-5.19-.55-7.92,3.28-4.09,2.46-6.55-3-4.64-3-7.37,6.55-6,6.83-7.92-1.91-5.18,1.63-5.18,3.55,1.91,5.74,1.09,7.64-3.55,6.27-6-5.18,2.18-5.18.27,1.09-4.92-1.09-6-3.28-1.36-3.28-3.27-6-2.19-3.27-3.83,8.73-1.91,8.19-3.27-4.64-3-3.28-4.64,5.46-5.46,6.83-7.64-2.46-3.28,0-4.92a26.28,26.28,0,0,1,6.82-3c1.09-.27,5.46,0,4.64-2.46s-3.55-7.09-5.19-6.27-5.46,4.36-7.64,2.73-3.66-2.4-3.07-3.91A9,9,0,0,0,588.57,422.77Z" style="fill:#fff"/><path d="M463,522.53c-2.15-1.11-1.63-4.23-2.72-4s-1.37,2.19-2.32,1.64-4.1-.27-4.78.55-6.55,1.5-7.78.13-3.14-6,0-7.36,7,1.63,8.33,1,2.32-2.86,4.09-2,3.27,3.28,4.37,2,1.64-7.64,4.36-6.14.82,9.55-.41,9.55-2.31-.13-.81,1.91S468.33,525.26,463,522.53Z" style="fill:#fff"/><path d="M439.53,385c-1-1.84,0-4.3-1.84-5.12s-4.71,1.43-4.5-.41,1.23-3.89-.21-3.27-2.05,2.66-2.46,1.23,1.23-4.71,0-6.56-10.23-5.11-11.87-9.62-4.91-7.37-7.57-7.57-7,3.89-8.19,2.05-1-6.35.82-7.58,4.5-3.28,2.45-5.73-4.5-2.87-4.71-4.1-2.25,1-3.68.21-4.09-4.3-5.32-3.48-.62,2-2.46,1.23c-1.06-.47-2.59-2-4.21-2.94-.71,1.92-1.48,4.06-3.16,4.37-2.25.41-3.07-4.71-6.55-4.91s-6.14-4.3-8-4.71-4.51,2.25-5.33,3.27,2.66,4.71,2.66,6.14-3.68,1-5.52,1.23-3.28,3.89-4.71,4.92-2.87-5.12-3.48-7-2.46-1.44-6.15-1.44-1.43,1.64-2.24,4.1-10,2.25-12.29,2.25-3.28,1.84-4.51,2.86-5.73-4.5-6.75-5.52-3.89,3.07-5.94,5.52,1.44,2.67,2.87,3.89-5.93,2.26-6.34,4.71-3.9,6.55-5.33,7.78.82,3.48.21,5.32-1.23,6.15-1.85,7.78-2.86.62-4.09.62-1,2.25-1,4.09-7,.21-9.42.21-3.28-3.07-6.55-4.1-2.66,2.25-2.25,3.89c.2.84-1.58,1.95-3.81,3.08-1.08,1.49-2.54,3.87-2.54,5.93,0,3.28-7.78,3.68-7.78,6.55s-3.28,4.1-4.5,6.55a9,9,0,0,0,.63,8.6c2.55,2.65,8.73,2.4,11,1.43s23.13-5.52,26.81-8.6,9.63-5.32,9.63-8.59,2.25-3.69,4.09-5.94,1.64-8,5.53-9.62,8.59-3.69,9.21-6.55,4.1-6.35,4.1-8.19S350,352.2,353.1,352.2s13.72,3.89,18.42,4.3,8.6,3.89,8.6,4.71,1.85,4.3,3.9,3.69,1.63-3.89,3.47-3.48,7.78,4.3,9.22,7,2,3.89,5.32,4.3,11.26,7.16,11.26,9,2.25-.2,3.68,1.64,10.24,11.06,11.26,8.6-1-5.73,1.23-5.12,6.35,5.94,8,5.94a18.06,18.06,0,0,1,4.87.27,37.06,37.06,0,0,0,1.89-5.8C444.44,385.64,440.55,386.87,439.53,385Z" style="fill:#fff"/><path d="M280.06,378.68c-.41-1.64-1-4.91,2.25-3.89s4.09,4.1,6.55,4.1,9.42,1.63,9.42-.21-.21-4.09,1-4.09,3.48,1,4.09-.62,1.23-5.93,1.85-7.78-1.64-4.09-.21-5.32,4.92-5.32,5.33-7.78,7.77-3.48,6.34-4.71-4.91-1.43-2.87-3.89,4.92-6.55,5.94-5.52,5.53,6.55,6.75,5.52,2.26-2.86,4.51-2.86,11.46.2,12.29-2.25-1.44-4.1,2.24-4.1,5.53-.41,6.15,1.44,2,8,3.48,7,2.86-4.71,4.71-4.92,5.52.21,5.52-1.23-3.47-5.11-2.66-6.14,3.48-3.68,5.33-3.27,4.5,4.5,8,4.71,4.3,5.32,6.55,4.91,2.87-4.1,3.89-6.14,3.68-5.12,2.66-6.35-3.48-.82-3.48-4.5-3.68-5.94-5.53-6.35-3.68-2.25-3.27-3.68,2.05-1-.41-2.87-5.33-4.3-5.33-6.55-6.55-3.07-6.55-5.53,3.28-5.53.62-5.32-6.14,5.12-8.81,4.5-2-1.63-5.11-2.45S348,289.43,348,287s-2.25-4.5-4.5-7.58-2.25-4.7-1.43-6.54-2.46-2.26-1-3.49-1.43-2.25-.61-3.48a45.18,45.18,0,0,0,2.66-5.52c.82-1.85,5.11-.41,6.14,1.22s1.23,4.92,3.07,4.3,3.48-3.68,5.53-4.7-4.1-3.07-1-3.89,4.92.82,5.33-1.44-1.43-7.78-2.66-8.8-5.12-2.05-4.3-4.5,1.84-4.3,0-6.76-3.28-2-2.05-3.68-.61-4.92-2.05-7.17c-1-1.6-3.66-3.71-3.22-5.9-.19,0-.29-.16-.25-.45.26-2.65,5.52-3.47,2.86-7.57s-6.76-7.78-4.5-8.8,1.84,1.43,4.91,0,4.3-7.17,7.16-8.19c2.35-.84,1.54-2.91,1.17-5.2a18.59,18.59,0,0,1-4-.53c-6.14-1.64-10.65-13.52-12.29-14.33s-5.32-4.92-2.45-7.38.41-8.59,2-11.87-4.09-3.27-8.59-1.64-1.23,3.69-2.87,7.78-9,2-13.1,4.51,0,4.5,2.86,13.1-6.14,4.91-8.18,11.46-7,4.92-9.42,4.92-2.46,3.27-4.91,5.73a1.76,1.76,0,0,1-.37.23c.51,7.42,1,15.33,1,16.15,0,1.43,1.84,2.86,3.28,4.5s-.82,2.25-1.64,3.89.41,1.64,1.64,4.1-6.55,4.29-8.81,5.32-6.55,2.45-10.64.61-9.22-2.66-12.29-1.23-8.39,5.12-11.66,5.12-4.92,2.25-7,3.28-4.09-2.46-5.11-2.87c-.54-.21-2.74,1.18-5.44,3a18.06,18.06,0,0,1,3.39,3.32c2.86,4.09,5.73,4.09,1.23,8.18s0,2.87-.82,8.19-11,3.69-15.56,7-5.73,3.28-8.6,2.05-9.41,0-11.46,2.87,1.64,8.19,3.68,11.46-.81,7.78,3.28,12.29,11.87.81,16.38,4.91.81,5.32,2.45,13.51-7,1.64-7.36,5.32-6.15,8.19-8.61,11.06,3.69,10.23,2.06,12.69,4.49,12.69,6.13,15.15,9.83,4.09,14.33,7a78.69,78.69,0,0,1,10.65,7.78c3.27,2.86,17.2-6.14,21.29-4.1s-.41,4.51-.41,4.51l4.09,4.5s-.51.57-1.14,1.44C278.48,380.63,280.26,379.52,280.06,378.68Z" style="fill:#fff"/><path d="M246.69,239.68c1,.41,3.07,3.89,5.11,2.87s3.69-3.28,7-3.28,8.6-3.68,11.66-5.12,8.19-.61,12.29,1.23,8.39.41,10.64-.61,10-2.87,8.81-5.32-2.46-2.46-1.64-4.1,3.07-2.25,1.64-3.89-3.28-3.07-3.28-4.5c0-.82-.47-8.73-1-16.15-3,1.67-12.86-4.39-15.6-6s-5.32.82-13.51,4.91S258.16,201,251.2,203.4s-10.24-4.5-11.87-1.63-5.74,2.86-9.42,2.86-5.32,4.92-5.32,10.24,13.92,11.87,11.46,18c-1.75,4.39,1.92,7.11,5.21,9.79C244,240.86,246.15,239.47,246.69,239.68Z" style="fill:#fff"/><path d="M483.14,156c3.07,1.23,7-1.23,8.19,3.89s.81,6.55-2.66,6.75-6.15-1-4.92,1.44,2.87,3.48,2.46,5.32,2.46,5.32.82,7.78a11.48,11.48,0,0,0-2.25,7.17c0,2.86-2.46,6.55-3.69,7.78s-.21,3.48-1.43,5.11-3.48,0-1.84,2.66,3.88,4.1,3.68,6.15-.21,7,.82,8.59,1.43,5.33,3.69,5.12,5.32-1,6.34-3.48,3.89-2.66,5.53-2.25c.75.19,2.59.46,4.41,1,1.81-2.74,3.44-4.81,4-4.45s.1,3.17-.79,5.72a2.82,2.82,0,0,1,1.4,1.65c.62,2.66-2.25,7.16-.2,9.42s2.05,4.71,4.09,3.27,4.71-3.48,6.76-3.07,7.78,3.28,9.62-1.64,8-20.67,9.42-20.47,2.46,3.07,3.69,1.64-.42-3.89,3.47-5.12,8.4-5.12,10-3.68,2.46,4.7,5.53,4.7,3.68-6.34,4.71-7.57-1.64-3.48.2-4.3,9.62-2.25,13.31-3.89,5.32-3.68,3.89-5.53-2.46-1.22-2.46-3.48-4.7-3.48-4.7-5.11-4.51-7.37-3.08-8.6,3.28-1.23,3.28-3.48,3.89-1.64,2.25-5.12-5.53-3.48-3.68-4.91,12.89-1,13.92-3.69,2.05-12.69,4.3-11.87,6.14,2.46,6.55,4.91,2.66,2.25,4.3,1.23,4.7-3.48,5.93-2.66,2.26,2.66,3.28,1.43c.41-.49,2.56-2.72,5-5.21a14.64,14.64,0,0,1-3.94-2.91c-1.64-1.91-2.46-6.82-5.74-7.1s-3.55-5.18-2.45-7.91-2.19-4.1-4.64-3.55-3.82-6.55-3.82-9.55-.83-4.1,2.18-4.37,3.55-5.19.54-6S575.19,105,570,107.5s-6.82-1.91-12.55-1.09-3-1.09-6-1.37-4.65,2.19-6.29,3.55-2.45,0-5.18-1.91-12.56,4.1-15.29,6.83-2.45,8.46-2.86,11.73-4.91,2.46-9.83,3.28-7-2.46-11.46-3.28,1.22-3.27-3.69-6.55-5.32,2-11.05.41-3.28,2.05-7.37,4.09,0,2,2.05,3.69-4.51,6.55-6.55,8.19,1.22,4.5,4.91,5.32,3.27,3.69,2.86,6.14c-.15.95-1.1,1.47-2.36,1.73C480.19,151.58,480.91,155.06,483.14,156Z" style="fill:#fff"/><path d="M665,514.75c-2.18-2.45-6-8.18-9-8.46s-5.19,3.82-5.74,1.09-5.18-6-5.18-8.18,1.91-10.65,0-12.29-4.09-1.64-3.82-3.27,1.91-1.1,1.64-4.1-4.65-11.19-6-15.56.28-14.19-1.64-11.74-.54,4.37-2.45,4.1-3.28-1.64-4.37-1.64-1.91,3.28-3.27,1.37-8.47-11.19-10.65-11.19-2.46,3.82-5.19,2.18-6.55-1.09-4.64-3,4.37-4.64,1.91-6-3.82,2.73-5.45,1.64c-.57-.37-2.81-.68-5.65-.84-1.49,2.22-5.32,5.81-6.64,7.39s2.73,3.28,3.28,4.64-5.46,1.64-8.19,3.27,3.27,1.92,3.27,3.83,1.09,2.18,3.28,3.27,1.09,4.1,1.09,6,3.82-2.73,5.18-.27-4.09,5.18-6.27,6-2.19-1.09-5.74-1.09-1.36,3.27-1.63,5.18-6.83,5.19-6.83,7.92,2.19,4.91,3,7.37-1.37,3.82-2.46,6.55.82,6.28.55,7.92c-.19,1.09-2.67,3.63-4.71,5.61a46.63,46.63,0,0,0,4.43,6.94c1.37,1.64-2.45,4.37-1.91,5.46s5.46,7.37,8.19,7.1,6.28-.27,7.92-1.64,1.36,1.91,5.18,4.92,2.19,4.36,3.83,8.46,2.18,4.91,3.54,4.09,1.91,1.37,4.1.82,3-1.37,3.27.82-1.36,8.19,1.1,8.19,6,2.73,7.91,1.36,3.28-2.18,3.82-5.18,3.55,0,5.74-1.1,4.36-2.18,3.55-3.54-.83-1.1,1.36-2.46,10.1-6,10.64-8.19,4.91,0,6.83-2.18,5.46-1.37,9.28-2.73,5.73-2.46,5.73-4.92-1.64-7.37,1.36-7.37a15.31,15.31,0,0,1,2.79.15c-.23-3.88-.86-7.4-1.69-8.06C668.27,512.3,667.18,517.21,665,514.75Z" style="fill:#fff"/><path d="M938.49,741.31c-1.91-3.82-7.09-1.37-6.82-4.37s-2.18-11.47-2.18-13.1.54-4.1.27-4.92-1.09-3.82-.54-4.64-7.64-4.36-9-4.36-3.55,3.55-4.91,2.73-.55-3.55-2.74-1.37-5.46,6.28-6.82,4.91S891,699.27,889.36,696.81s-6,1.64-7.91,0-8.74-3-7.64-4.91,6.27-3.55,3-6.82-5.74-2.73-6.28-4.92-5.46-.82-6.55-3-2.18,5.46-6,3.28-9.28.27-12,.27c-1.28,0-2.63,1-4.06,1.94,1.07,3.22,2.18,6.12,2.7,7.89,1.36,4.64-6.55,9.82-8.46,11.46s-4.1-1.91-6.56-1.64-.27,11.47.55,15.29,7.37,4.91,9.28,7.64-2.73,3-3.82,5.46,5.73,1.91,6.82,5.46-1.09,4.37,1.37,6.82,4.09,3.82,6,6,6.28.82,6.55,4.64,3.28,6.28,6,9.83-7.92,7.91-5.73,11.46c1.24,2-1.33,6.8-3.92,11.34,1.77,2.44,3.28,5.19,4.67,6.27a12.34,12.34,0,0,1,2.29,2.55c3.1-3.85,5.71-6.72,7.06-7.33,3-1.37,3,2.18,5.19,1.09s3.82-2.18,5.45.27,4.37,8.74,7.92,8.19,6.82-1.36,9.56-3.55,10.36,4.64,10.91,1.64-1.09-5.73.82-8.19,1.09-5.18,2.73-10.1c.91-2.74,9.42-3.1,17.13-2.79,1.9-2.39,3.8-4.46,4.64-6.15,1.23-2.45,3.48-3.68,3.48-7.37,0-1.86,3.32-7.73,7.12-13.3A22.24,22.24,0,0,1,938.49,741.31Z" style="fill:#fff"/><path d="M533.91,300.07c-1.23-2.86-6.55-4.5-6.55-6.14s1.22-4.3-1.85-4.3-4.91,2.87-6.75,1-.21-3.49-2-4.1-2.46.61-3.07-1.43,0-3.69-1-4.51S502,273.46,500.33,271s-4.7,1.64-6.14.21,1.23-2,.21-5.53,1.84-3.28-.21-5.32-5.94-2.05-5.32-3.89c.2-.62.5-1.29.79-2-.7-.73-1.31-1.29-1.82-1.29-1.22,0-5.32-.2-5.73-2s4.92-2.26,3.69-5.74-3.48-3.27-1-5.53,10-7.37,11.66-10.85A102.71,102.71,0,0,1,502.29,219c-1.82-.51-3.66-.78-4.41-1-1.64-.41-4.51-.21-5.53,2.25s-4.1,3.28-6.34,3.48-2.67-3.48-3.69-5.12-1-6.55-.82-8.59-2.05-3.48-3.68-6.15.61-1,1.84-2.66.2-3.89,1.43-5.11,3.69-4.92,3.69-7.78a11.48,11.48,0,0,1,2.25-7.17c1.64-2.46-1.23-5.94-.82-7.78s-1.23-2.86-2.46-5.32,1.43-1.23,4.92-1.44,3.88-1.63,2.66-6.75-5.12-2.66-8.19-3.89c-2.23-.89-2.95-4.37-3.8-7.69a22.39,22.39,0,0,1-6.64-.09c-2.87-.41-6.56-4.91-7-6.55s-6.56-.41-9.83,2-5.32,9-4.91,13.1,4.09,2,8.59,4.5S458,164.55,455.5,167s.82,2.86,2.46,8.18-.82,3.28-3.28,4.92S451,176,449,174s-1.23-2.87-.41-6.56-11.06-3.68-13.51-2-5.73-.41-7.37,3.27-4.1,2.87-7.78,2.87-5.73-4.1-7.78-7.37-1.23-9.83-1.64-12.28-1.64,1.22-3.27,2-2.87-1.64-6.15-4.5-2.45,2-4.09,4.5,1.64,9,1.23,12.69-9,16.38-11.88,18.84-3.27,6.55-5.73,7,0,7-2.46,9,.41,3.27,3.69,7-2.46,9-6.55,7.37-3.69-4.92-4.1-8.6-3.27-7.37-5.73-7.78.41-4.91,2-8.6c.94-2.11-1.23-2.07-4.41-2a1.61,1.61,0,0,0-.3,1.14c.62,1.84,1.84,6.76,0,7.17s-10.44,7-10.44,9,2.46,6.34,1.64,7.78c-.71,1.23-5,5.3-6.09,5.15-.44,2.19,2.21,4.3,3.22,5.9,1.44,2.25,3.28,5.53,2.05,7.17s.21,1.22,2.05,3.68.82,4.3,0,6.76,3.07,3.48,4.3,4.5,3.07,6.55,2.66,8.8-2.25.62-5.33,1.44,3.08,2.86,1,3.89-3.68,4.09-5.53,4.7-2-2.66-3.07-4.3-5.32-3.07-6.14-1.22a45.18,45.18,0,0,1-2.66,5.52c-.82,1.23,2,2.26.61,3.48s1.84,1.64,1,3.49-.82,3.48,1.43,6.54,4.5,5.12,4.5,7.58.2,4.71,3.28,5.53,2.45,1.84,5.11,2.45,6.15-4.29,8.81-4.5-.62,2.87-.62,5.32,6.55,3.28,6.55,5.53,2.87,4.71,5.33,6.55.82,1.43.41,2.87,1.43,3.27,3.27,3.68,5.53,2.66,5.53,6.35,2.46,3.27,3.48,4.5c.46.56.16,1.49-.39,2.53,2.54.85,5,1.11,5.1-1.09.2-3.49-3.07-6.35-.2-8.81s4.91-1.64,4.3-5.12-4.1-5.93-3.28-7.57,7-14.74,9.21-15.76,4.91,1.84,7,0,.82-4.51,2.87-3.48,1,2.25,2.45,1.63,1.64-3.07,2.66-1.22-.2,4.09,1,4.5,3.48,3.07,4.3,1.84.2-4.5,2.66-3.89,4.91,5.12,5.32,3.69.41-3.07,1.85-2.66,1.64,1.84,2.66.82-1.23-4.3.41-4.1,1,2.66,2.86,1.64,3.48-1.64,5.53-.41S447.11,298,450,298s4.1-4.1,7.17-2.67,8.8,8.4,10.85,7.17,4.3-2.87,4.71-1-.83,2.26,1.84,3.89,8.6,5.12,10.85,3.48,4.91-7,6.55-7,4.91,1.85,4.91,2.87,5.74,5.53,9.83,4.5,11.05-5.52,15.35-4.09,3.48,2.86,7.58,2.25c3-.44,7.09-1.52,9.85-1.39C536.92,303.9,534.57,301.62,533.91,300.07Z" style="fill:#fff"/><path d="M241.25,242.71c2.71-1.85,4.9-3.24,5.44-3,1,.41,3.07,3.89,5.11,2.87s3.69-3.28,7-3.28,8.6-3.68,11.66-5.12,8.19-.61,12.29,1.23,8.39.41,10.64-.61,10-2.87,8.81-5.32-2.46-2.46-1.64-4.1,3.07-2.25,1.64-3.89-3.28-3.07-3.28-4.5c0-.82-.47-8.71-1-16.12" style="fill:#fff"/><path d="M276.25,381.77c2.23-1.13,4-2.24,3.81-3.09-.41-1.64-1-4.91,2.25-3.89s4.09,4.1,6.55,4.1,9.42,1.63,9.42-.21-.21-4.09,1-4.09,3.48,1,4.09-.62,1.23-5.93,1.85-7.78-1.64-4.09-.21-5.32,4.92-5.32,5.33-7.78,7.77-3.48,6.34-4.71-4.91-1.43-2.87-3.89,4.92-6.55,5.94-5.52,5.53,6.55,6.75,5.52,2.26-2.86,4.51-2.86,11.46.2,12.29-2.25-1.44-4.1,2.24-4.1,5.53-.41,6.15,1.44,2,8,3.48,7,2.86-4.71,4.71-4.92,5.52.21,5.52-1.23-3.47-5.11-2.66-6.14,3.48-3.68,5.33-3.27,4.5,4.5,8,4.71,4.3,5.32,6.55,4.91,2.87-4.1,3.89-6.14,3.68-5.12,2.66-6.35-3.48-.82-3.48-4.5-3.68-5.94-5.53-6.35-3.68-2.25-3.27-3.68,2.05-1-.41-2.87-5.33-4.3-5.33-6.55-6.55-3.07-6.55-5.53,3.28-5.53.62-5.32-6.14,5.12-8.81,4.5-2-1.63-5.11-2.45S348,289.43,348,287s-2.25-4.5-4.5-7.58-2.25-4.7-1.43-6.54-2.46-2.26-1-3.49-1.43-2.25-.61-3.48a45.18,45.18,0,0,0,2.66-5.52c.82-1.85,5.11-.41,6.14,1.22s1.23,4.92,3.07,4.3,3.48-3.68,5.53-4.7-4.1-3.07-1-3.89,4.92.82,5.33-1.44-1.43-7.78-2.66-8.8-5.12-2.05-4.3-4.5,1.84-4.3,0-6.76-3.28-2-2.05-3.68-3.48-9.42-2.05-7.17c.33.52-3.71-3.52-3.24-5.89,0,0,3.75-4.22,3.35-5.55,0,0-9.12-11.65-5.22-11.28s3.51,1,4.91,0,4.58-6.84,7.16-8.19,1.16-5.19,1.16-5.19" style="fill:#fff"/><path d="M442.36,393.07a38,38,0,0,0,1.88-5.79c.2-1.64-3.69-.41-4.71-2.25s0-4.3-1.84-5.12-4.71,1.43-4.5-.41,1.23-3.89-.21-3.27-2.05,2.66-2.46,1.23,1.23-4.71,0-6.56-10.23-5.11-11.87-9.62-4.91-7.37-7.57-7.57-7,3.89-8.19,2.05-1-6.35.82-7.58,4.5-3.28,2.45-5.73-4.5-2.87-4.71-4.1-2.25,1-3.68.21-4.09-4.3-5.32-3.48-.62,2-2.46,1.23a35.68,35.68,0,0,1-3.58-2.54" style="fill:#fff"/><path d="M388.8,327.78c2.53.85,4.95,1.1,5.08-1.09.2-3.49-3.07-6.35-.2-8.81s4.91-1.64,4.3-5.12-4.1-5.93-3.28-7.57,7-14.74,9.21-15.76,4.91,1.84,7,0,.82-4.51,2.87-3.48,1,2.25,2.45,1.63,1.64-3.07,2.66-1.22-.2,4.09,1,4.5,3.48,3.07,4.3,1.84.2-4.5,2.66-3.89,4.91,5.12,5.32,3.69.41-3.07,1.85-2.66,1.64,1.84,2.66.82-1.23-4.3.41-4.1,1,2.66,2.86,1.64,3.48-1.64,5.53-.41S447.11,298,450,298s4.1-4.1,7.17-2.67,8.8,8.4,10.85,7.17,4.3-2.87,4.71-1-.83,2.26,1.84,3.89,8.6,5.12,10.85,3.48,4.91-7,6.55-7,4.91,1.85,4.91,2.87,5.74,5.53,9.83,4.5,11.05-5.52,15.35-4.09,3.48,2.86,7.58,2.25,10.44-2.45,12.28-.61,7-1,9.21,1.22,2,4.51,4.51,4.51,10.44-8.39,15.14-8.6,19,.61,20.68,2.87,3.48,3.68,6.35,2.86,4.71-3.27,5.12-1c.23,1.29,1.14,5.64,1.88,9.87" style="fill:#fff"/><path d="M616.25,139.09c-2.41,2.47-4.55,4.7-5,5.19-1,1.23-2-.61-3.28-1.43s-4.3,1.64-5.93,2.66-3.9,1.23-4.3-1.23-4.3-4.09-6.55-4.91-3.28,9.21-4.3,11.87-12.08,2.25-13.92,3.69,2,1.43,3.68,4.91-2.25,2.87-2.25,5.12-1.84,2.25-3.28,3.48,3.08,7,3.08,8.6,4.7,2.86,4.7,5.11,1,1.64,2.46,3.48-.2,3.89-3.89,5.53-11.46,3.07-13.31,3.89.82,3.07-.2,4.3-1.64,7.57-4.71,7.57-3.89-3.27-5.53-4.7-6.14,2.45-10,3.68-2.25,3.69-3.47,5.12-2.26-1.43-3.69-1.64-7.58,15.56-9.42,20.47-7.57,2.05-9.62,1.64-4.71,1.64-6.76,3.07-2-1-4.09-3.27.82-6.76.2-9.42a2.82,2.82,0,0,0-1.43-1.67l-4.16-1.51a59.48,59.48,0,0,1-16.51,21.19c-3.06,2.49.06,3.62,1,5.53s-2.69,4.24-3.69,5.74,7.55,3.33,7.55,3.33c-.29.71-.59,1.37-.79,2-.62,1.84,3.27,1.84,5.32,3.89s-.82,1.84.21,5.32-1.64,4.09-.21,5.53,4.51-2.67,6.14-.21,11.26,8.81,12.28,9.62.42,2.46,1,4.51,1.23.82,3.07,1.43.21,2.25,2,4.1,3.68-1,6.75-1,1.85,2.66,1.85,4.3,5.32,3.28,6.55,6.14c.66,1.55,3,3.83,5.55,6" style="fill:#fff"/><path d="M479.34,148.25c.85,3.33,1.57,6.81,3.8,7.7,3.07,1.23,7-1.23,8.19,3.89s.81,6.55-2.66,6.75-6.15-1-4.92,1.44,2.87,3.48,2.46,5.32,2.46,5.32.82,7.78a11.48,11.48,0,0,0-2.25,7.17c0,2.86-2.46,6.55-3.69,7.78s-.21,3.48-1.43,5.11-3.48,0-1.84,2.66,3.88,4.1,3.68,6.15-.21,7,.82,8.59,1.43,5.33,3.69,5.12,5.32-1,6.34-3.48,3.89-2.66,5.53-2.25c.61.15,1.94.36,3.41.71" style="fill:#fff"/><path d="M658.62,240.34c-2.76-6.65-7.14-18.3-6.8-19.49.41-1.44-3.07,2-4.71,1.43s-1.84-2.46-4.09-1.84-1.43,3.48-3.27,2,0-3.27-2.67-2-5.52,3.89-7.16,3.07-1.44-2-3.28-1.85-2.45.62-4.09-2.45-1.64-5.32-3.89-7-4.51-3.07-4.51-5.33-.2-10,.83-10.44,4.7-1.43,4.7-3.89-2.86-3.68-4.7-8-9.22-5.12-7.17-7.78,7.57-5.73,8.8-8.39,3.07-8,5.94-8.19,8.39.41,8-1-2.66-3.07.21-4.71,5.11,1.22,5.52-1.84c.23-1.65.44-6,.6-9.79" style="fill:#fff"/><path d="M617.21,408.2c1.76,2.19,4.4,5.27,4.93,4.74.82-.82,2.46-3,3-1.36s5.45,3.54,6.82,2.18c1-1,2.92-5.48,3.85-10.17" style="fill:#fff"/><path d="M539.65,557.14c1.1-2.67,2.35-4.72,3.88-5,3-.55,8.19-.82,8.73-3.28s-4.64-3.27-3-4.91,1.09-3.55,3.28-3.82,6.82-2.73,8.46-4.91,5.18-2.46,4.91-4.1-3.82-4.09-2.73-5.46,3.83-.55,3.55-3-4.37-7.1-2.73-8.19,4.92,1.64,6.28.27,6.82-6.28,7.1-7.91-1.64-5.19-.55-7.92,3.28-4.09,2.46-6.55-3-4.64-3-7.37,6.55-6,6.83-7.92-1.91-5.18,1.63-5.18,3.55,1.91,5.74,1.09,7.64-3.55,6.27-6-5.18,2.18-5.18.27,1.09-4.92-1.09-6-3.28-1.36-3.28-3.27-6-2.19-3.27-3.83,8.73-1.91,8.19-3.27-4.64-3-3.28-4.64,5.46-5.46,6.83-7.64-2.46-3.28,0-4.92a26.28,26.28,0,0,1,6.82-3c1.09-.27,5.46,0,4.64-2.46s-3.55-7.09-5.19-6.27-5.46,4.36-7.64,2.73-3.82-2.46-3-4.1a25.5,25.5,0,0,0,1.63-8.19c0-2.18-1.09-4.91,1.64-4.64s4.64,1.37,6,.28,7.91-4.1,9-4.1a6.7,6.7,0,0,1,1.64.42" style="fill:#fff"/><path d="M417.88,359.51c2.87-.64,5.4-1.68,6.64-3.07,2.18-2.46,5.18-6.55,8.46-6.55s10.1,2.18,9.28,3.82-1.36,3.82,0,5.18,4.37,4.1,6.28,4.1,6.28,7.91,9.56,7.64,2.72-2.18,6.27,0,2.73,3,7.1,4.37,3.82,4.64,5.18,7.37a4.85,4.85,0,0,0,6.41,2.4l.42-.22c2.45-1.36,6.55-4.09,10.1-1.64s10.64,10.65,12.83,8.74,3-6.55,5.46-5.73-2.46,3.27,1.09,3.82,4.64-1.64,8.46-1.09,9.28,0,8.46-1.1-5.46-3.55-2.46-4.36,9-3.28,9.56-4.64,3.55-2.19,4.64-1.37,1.63,6.55,6,6.55,6-1.64,6.55,0-2.18,4.1.28,4.1,9.28-1.37,9.28-.28-4.37,10.65-5.19,10.65-1.09,3,.55,5.73.27,7.1,3.27,8.46,7.37,6,9.56,6,8.19,4.09,9.55,4.64,5.73,1.36,7.1-.27a8.79,8.79,0,0,1,2.65-2" style="fill:#fff"/><path d="M572.67,512.45a46.63,46.63,0,0,0,4.43,6.94c1.37,1.64-2.45,4.37-1.91,5.46s5.46,7.37,8.19,7.1,6.28-.27,7.92-1.64,1.36,1.91,5.18,4.92,2.19,4.36,3.83,8.46,2.18,4.91,3.54,4.09,1.91,1.37,4.1.82,3-1.37,3.27.82-1.36,8.19,1.1,8.19,6,2.73,7.91,1.36,3.28-2.18,3.82-5.18,3.55,0,5.74-1.1,4.36-2.18,3.55-3.54-.83-1.1,1.36-2.46,10.1-6,10.64-8.19,4.91,0,6.83-2.18,5.46-1.37,9.28-2.73,5.73-2.46,5.73-4.92-1.64-7.37,1.36-7.37,4.37,0,6.28,2.73,4.1,6,7.65,4.1,1.36-3.82,4.64-4.64.81-7.37,5.73-7.1,7.37,2.46,9.82-1.09.55-5.19,4.92-4.64c2.74.34,6.14-2,11.07-4.69" style="fill:#fff"/><path d="M671.34,521.45c-.24-3.88-.87-7.4-1.7-8.06-1.37-1.09-2.46,3.82-4.65,1.36s-6-8.18-9-8.46-5.19,3.82-5.74,1.09-5.18-6-5.18-8.18,1.91-10.65,0-12.29-4.09-1.64-3.82-3.27,1.91-1.1,1.64-4.1-4.65-11.19-6-15.56.28-14.19-1.64-11.74-.54,4.37-2.45,4.1-3.28-1.64-4.37-1.64-1.91,3.28-3.27,1.37-8.47-11.19-10.65-11.19-2.46,3.82-5.19,2.18-6.55-1.09-4.64-3,4.37-4.64,1.91-6-3.82,2.73-5.45,1.64c-.57-.37-2.8-.68-5.63-.84" style="fill:#fff"/><path d="M706.83,669.57c4.9-2.16,10.85-5.25,10.85-7.15,0-2.73-1.91-10.92.27-12s10.92-7.37,10.37-10.1-3.82-4.09-3.82-6.55-2.45-9.55-4.91-11.46-4.1-.55-5.19-1.64-1.36-1.91-3-1.64-2.73,2.18-3.82,0-2.46-4.64-3.28-4.64-2.18,1.09-3.27-.27-6.83,5.46-9,3.82-4.91-5.19-7.1-6-6.55,1.36-6.55-2.19,2.19-3,1.09-5.46-6-4.09-7.91-5.46-11.19-5.46-12.83-5.46-4.64-4.63-4.37-6.82,3-4.37,3.82-7.1,6.55.55,10.1,2.19,6.28,1.91,7.1-.55,4.64-2.18,3.55-3.28-4.65-3.54-5.74-5.18-3.27-3.27-4.36-6.55-5.46-5.46-4.37-6.83,2.18-1.09,1.37-2.72-4.37-3-3.55-4.64,5.18-2.19,3.55-5.74-4.64-4.64-2.74-5.73,3-.82,4.37-2.46,8.74,3.55,11.2.82,4.63-3.82,2.72-5.46-4.09-1.63-4.64-3.54a12.57,12.57,0,0,1,.15-3" style="fill:#fff"/><path d="M722.84,627.52c3.5-1.87,7.29-4.21,7.94-5.5,1.09-2.18,9.28-2.73,9.28-4.91s-4.37-7.1-3-7.91,4.09.81,4.64-.82,5.18-5.74,6-5.19,1.36,5.19,3.55,4.37,5.19-1.64,6.28,1.36,1.09,9.56,3.28,8.19,3.54-5.18,6.27-7.1,5.19-7.64,5.19-10.09,8.19-5.74,8.46-8.47a32.7,32.7,0,0,1,1.53-4.93" style="fill:#fff"/><path d="M941.66,745.54a22.58,22.58,0,0,1-3.17-4.23c-1.91-3.82-7.09-1.37-6.82-4.37s-2.18-11.47-2.18-13.1.54-4.1.27-4.92-1.09-3.82-.54-4.64-7.64-4.36-9-4.36-3.55,3.55-4.91,2.73-.55-3.55-2.74-1.37-5.46,6.28-6.82,4.91S891,699.27,889.36,696.81s-6,1.64-7.91,0-8.74-3-7.64-4.91,6.27-3.55,3-6.82-5.74-2.73-6.28-4.92-5.46-.82-6.55-3-2.18,5.46-6,3.28-9.28.27-12,.27-5.73,4.64-9.28,3-3.55-4.37-6-4.09-7.92,1.36-9.83,0-7.37-2.73-4.36-4.92,4.91-6,4.36-7.36-3.82-5.74-5.73-5.46-4.09,1.63-4.91.54,1.64-1.36-1.37-2.73-4.36-3-3.54-4.37,3-4.36,1.9-6.82-11.73-4.37-12-8.73-1.64-11.2,1.63-11.2-.82,3.28,4.37.82S813,625,809.68,622.3s-5.19-4.1-3.82-6.28-.27-5.19,1.36-7.64c.76-1.13,1.39-4.74,1.92-8.39" style="fill:#fff"/><path d="M723.56,646.46c.81,3.87,2.13,7.31,4.48,8,4.37,1.36,9,3,7.1-.28s-4.09-3.54-2.73-6.27,1.1-5.46,4.1-4.64,6,.27,8.73.81,14.2,5.46,16.65,7.37,6.28,6.83,8.74,4.64,3-4.91,7.37-4.91,6.55-3.55,7.92-3.27c.78.15,7.23-.51,14.74-3.21" style="fill:#fff"/><path d="M859.65,793.13c3.1-3.86,5.71-6.72,7.06-7.33,3-1.37,3,2.18,5.19,1.09s3.82-2.18,5.45.27,4.37,8.74,7.92,8.19,6.82-1.36,9.56-3.55,10.36,4.64,10.91,1.64-1.09-5.73.82-8.19,1.09-5.18,2.73-10.1c.91-2.74,9.42-3.1,17.13-2.79" style="fill:#fff"/><path d="M852.69,784.31c2.59-4.54,5.16-9.32,3.92-11.34-2.19-3.55,8.46-7.91,5.73-11.46s-5.73-6-6-9.83-4.63-2.46-6.55-4.64-3.55-3.55-6-6-.27-3.27-1.37-6.82-7.91-3-6.82-5.46,5.73-2.73,3.82-5.46-8.46-3.82-9.28-7.64-3-15-.55-15.29,4.65,3.28,6.56,1.64,9.82-6.82,8.46-11.46c-.52-1.77-1.63-4.67-2.7-7.88" style="fill:#fff"/><path d="M363.05,188.79c3.19-.11,5.37-.16,4.42,2-1.64,3.69-4.5,8.19-2.05,8.6s5.33,4.09,5.73,7.78,0,7,4.1,8.6,9.83-3.69,6.55-7.37-6.14-4.92-3.69-7,0-8.6,2.46-9,2.87-4.5,5.73-7,11.47-15.15,11.88-18.84-2.87-10.23-1.23-12.69.82-7.37,4.09-4.5,4.51,5.32,6.15,4.5,2.86-4.5,3.27-2-.41,9,1.64,12.28,4.09,7.37,7.78,7.37,6.14.82,7.78-2.87,4.91-1.63,7.37-3.27,14.33-1.64,13.51,2-1.64,4.51.41,6.56,3.27,7.77,5.73,6.14,4.91.41,3.28-4.92-5-5.7-2.46-8.16,8.6-3.28,4.09-5.74-8.19-.41-8.59-4.5,1.63-10.65,4.91-13.1,9.42-3.69,9.83-2,4.09,6.14,7,6.55,8.59.82,9-1.64.82-5.32-2.86-6.14-7-3.68-4.91-5.32,8.59-6.55,6.55-8.19-6.15-1.64-2-3.69,1.63-5.73,7.37-4.09,6.14-3.68,11.05-.41-.82,5.73,3.69,6.55,6.55,4.1,11.46,3.28,9.42,0,9.83-3.28.13-9,2.86-11.73,12.56-8.74,15.29-6.83,3.55,3.28,5.18,1.91,3.28-3.82,6.29-3.55.27,2.19,6,1.37,7.33,3.55,12.51,1,25.39-10.65,28.39-9.83,2.46,5.74-.54,6-2.18,1.36-2.18,4.37,1.36,10.1,3.82,9.55,5.73.82,4.64,3.55-.82,7.64,2.45,7.91,4.1,5.19,5.74,7.1,7.09,5.46,13.37,5.46,12.28.82,17.2,3.82,10.1,1.64,18,2.73,7.37,2.73,14.47,1.64a35.93,35.93,0,0,1,20.2,2.73c6,2.73,5.18,6,3,6.55s-5.73,3.55-6.83,4.91-5.18,3.55-8.73,5.46-.27,6-2.45,6.28-1.1,6,1.91,6.28,5.73,0,8.19,2.45,10.09,1.1,7.36,3.83S684.65,200,685.74,203.58s1.64,5.46,4.37,4.37,5.18-3.82,5.73-1.37-6.55,11.2-3.55,14.74,4.37,1.92,9.55,4.92l-3.14,2.39c-1.43-1.85-6.34-3.08-8.39-2.87s-.61,3.89-.41,5.32-8.8,5.12-10,5.53,1.23-3.28,2.66-4.71-11.06-2.66-13.92-4.3-1.84-.2-3.48.82-1.84-2.66-3.27-1.64-3.49,5.94-5.12,7.58,4.5.41,5.94.82-1.64,2.45-3.49,4.7-11.25.62-14.12,2.67-27.43,14.94-29.89,16.58-5.32,3.68-7,3.27,5.53-7.57,7.78-8,4.09-2.46,5.11-3.48-1-2.87-1.83-3.28-5.94,4.3-8.19,4.71-5.33,2.46-7.78,4.51-1.85,9.62-3.9,12.89-.81,11.06.62,13.11,1.84-.41,2.66-.82,3.48,3.07,3.89,4.91-2.25,5.53-2.25,7.37,3.68,1.64,6.35,3.89,4.3,3.07,5.52,5.12,3.69.2,4.71,2-2.25,3.69-2.46,6.15-2.45,6.75-4.5,8-.2-6.35-.2-7.78-3.89,2.46-3.48,4.5,1.84,4.92.61,6.55-5.12-3.27-6.34-4.5-4.3,7.26-4.3,11.87c0,2.87,2.45,7.78.61,7.78s-6.76-2.25-8.19-1.43-1.84,6.14.41,8.39,8.39-2.45,9.42-.41-.62,7-.21,9.63c.69,4.49,5.53,17.4,5.73,21.49s18.23,21.7,21.91,25.39,9,2,11.46,3.89,21.5,17.6,21.5,17.6c2,2.25,15.15,11.26,18,13.1s5.74,1.85,6.76,1.44,8.19,4.5,9,5.73,0,4.09.61,7.57,18,37.26,18,40.54,4.91,22.72,10.64,37.46,21.5,25.8,25.18,28.46a24.09,24.09,0,0,1,7.58,9c1.84,3.48,11.46,8,14.94,9.62s4.3,3.48,4.3,6.55,4.5,4.3,7.37,6.34,8.19,3.07,11.26,3.89,5.32,3.28,10.44,6.76,16.78,1.43,19,2.25-3.07,1.43-4.71,2.25,7.37.82,10.24.82,7.78-2.66,8.8-3.27,4.5-2.66,7-1.23,17.61-3.07,27.23-2.87S887.2,607.3,886,610.58s-5.94,6.34-8,9.21-7.36,5.94-11,8-1.23,5.94.41,12.29,46.68,24.56,48.31,26.2,37.47,11.06,40.34,12.28S970.57,687,971.8,689s9,5.53,11.46,9.22,14.13,5.52,16,6.75,10.64,3.89,13.72,6.14,6.14,1.23,7,2.67,3.07,1.84,5.52,1.84,1.23,3.07,2.67,5.32.41,1,.61,4.3,12.69,6.14,15.77,9,2.66,5.32,8,9.42,8.19,7.57,8.8,11,5.12,8.19,5.53,10-1.23,1.84-1.23,4.5-1.64,3.69-4.3,6.15-1,17.6-3.27,20.47-4.92.41-6.76-1-4.09-1-5.73-.41-6.76-4.09-8.81-5.32-5.93-6.34-7.36-7.16,0-3.69,0-4.92-1.64-1.43-3.28-3.07.82-1.22,2.86-4.09-4.3-5.73-6.75-7.78-2.25-4.71-2.87-7.57S996,750.77,993,752s-5.53-1.23-10.65-2.66-11.33-5.64-13.6-5.64-1.64-1.44-.41-2.46a4.72,4.72,0,0,0,1.43-3.69c0-1,4.71-1.63,5.12-3.07s-3.68-.82-5.32-.2-3.28-.41-6.35-.41-7.57-1.64-11.67.2-17,21.09-17,24.77-2.25,4.92-3.48,7.37-4.71,5.74-7.17,9.63,3.28,11,2,12.28-9.62,13.1-10.24,17.4,2.67,4.5,2.67,6.14-.41,4.1,2,6.55,14.54,2.46,15.77,2.46,4.91,1.64,8,5.53,14.54,6.55,14.74,9,10,5.94,8.8,7-2.45,7.77-2.86,10.64,5.73,5.12,3.68,8,0,10.44-.41,12.08,5.53,4.51,3.89,5.73-.81,2.87-.81,4.92-1.64,3.68-3.9,5.52-2.45-.61-3.68-.82-1.64.41-3.69,1.44-1.43-1.64-2.86-2.46-8.8,1-15.36,4.3-16.17,11.87-17.4,15.15.82,5.93,1.85,14.53,2.24,15.36-2.46,20.89-12.49,8-14.33,9.82S897,966.27,897,970.16s-4.5,17.2-6.34,18.43-16.58,1-20.68,1.43-9.21-2-12.08-4.91-1.43-4.1.21-5.12-1.44-4.3-2-7.17-.2-7,0-11.26,3.28-2.86,7.37-4.09,6.76-4.91,7.57-9.21,5.53-15.36,6.76-17.61-7.16-8.39-7.57-10.65,9.82-8.18,12.28-9.2,5.32.4,7.17.61,4.7-3.07,7-5.53,1.63-9.82,1.63-13.31-1.63-4.09-4.5-5.52-7-11.47-7.58-14.74-.61-12.49-4.5-24.77-9-16-10-16.79-4.5-9.21-6.14-11.46-.82-6.35-2.25-9.83-1.23-7.37-.41-8.6-2.87-8.19-5.53-10.23-5.73-10.24-10.24-10.65S837,785.51,836,787.15s-5.94.81-8.6-1.23-2.87-.62-4.51-4.51-8.39-9-12.07-8.39-5.33-1.84-6.56-3.48a10.12,10.12,0,0,0-6.75-3.28c-2.26,0-1.43-3.27,0-4.29s-.62-4.71,2.46-6.56,3.27-4.91.81-7.78-5.53-12.69-7.78-16.37-10.44-7-12.07-5.74-3.89.82-5.94.62-3.48,2.86-4.71,3.68-5.52-2.25-7.78-2.25-10,6.55-10,3.89,10.44-9.21,9.83-12.49-3.28-2.86-4.71-2.66-5.74-7-9.21-8.19-5.32,3.07-5.94,4.1-4.91-2.46-7.17-3.07-1.22,2.45-.61,4.09-2.25.62-4.09-1.23,0-4.29-.21-7.37-5.94-11-7.37-12.48-2.46-4.71-4.71-9.42-10.44-12.9-12.48-13.92-7.17-1.64-9.63-.21-1,1.85-.41,4.51-13.71-5.94-16.58-7.78-8.8.82-11.26.82-9.21,5.52-10.64,5.73-3.07-3.69-6.76-11.06-10.24-8.59-12.08-7.78-4.09-1-7.37-3.48-3.27,0-4.5.62-7-10.24-11.67-16.18-17.19-12.89-18-13.3-3.68-9.62-6.34-15.56-13.1-10.44-16.17-12.49-4.3-1.23-6.55-.82-5.12-6.55-6.56-9-4.3-11.06-7.16-16.18-19-12.07-21.09-11.46-3.48-.2-7.57-1.64-3.69,3.69-5.53,5.12S514.6,556,514.81,553s2.66-.41,4.91-2.25,2-8.19-.21-9.83-2.25-2-3.89-4.91-2.87-4.51-5.11-4.92-2.26-3.48-3.69-6.34-8.8-6.15-11.47-5.94A5.81,5.81,0,0,1,490,516.3c-1.22-1.43.82-4.7,2.25-6.75s-1-4.3-4.3-7.17-10-3.48-11.46-.82-2.87,2.46-4.3.21-.61-4.5,1.23-5.94,3.69-21.49,1.23-24.56-5.12-10.24-6.76-14.13-5.52-7-7-10-3.27-26-3.27-30.91S446.08,395.67,444.24,394s-5.12-1.23-6.76-1.23-5.73-5.32-8-5.94-.2,2.66-1.23,5.12-9.82-6.76-11.26-8.6-3.68.21-3.68-1.64-8-8.6-11.26-9-3.89-1.64-5.32-4.3-7.37-6.55-9.22-7-1.43,2.86-3.47,3.48-3.9-2.87-3.9-3.69-3.88-4.3-8.6-4.71-15.35-4.3-18.42-4.3-20.67,9.22-20.67,11.06-3.49,5.32-4.1,8.19-5.32,4.91-9.21,6.55-3.69,7.37-5.53,9.62-4.09,2.66-4.09,5.94-5.94,5.52-9.63,8.59-24.36,7.58-26.81,8.6c0,0-6.42,1.71-11-1.43-3.22-2.2-1.27-7.32-.63-8.6,1.22-2.45,4.5-3.68,4.5-6.55s7.78-3.27,7.78-6.55,3.68-7.37,3.68-7.37l-4.09-4.5s4.5-2.46.41-4.51-18,7-21.29,4.1a78.69,78.69,0,0,0-10.65-7.78c-4.5-2.87-12.69-4.51-14.33-7s-7.77-12.7-6.13-15.15-4.51-9.83-2.06-12.69,8.19-7.37,8.61-11.06,9,2.87,7.36-5.32,2-9.42-2.45-13.51-12.29-.41-16.38-4.91-1.23-9-3.28-12.29-5.73-8.6-3.68-11.46,8.6-4.1,11.46-2.87,4.1,1.23,8.6-2.05,14.74-1.63,15.56-7-3.68-4.09.82-8.19,1.63-4.09-1.23-8.18-11.06-7-8.6-13.11-11.46-12.69-11.46-18,1.64-10.24,5.32-10.24,7.78,0,9.42-2.86,4.91,4.09,11.87,1.63,9.42.41,17.61-3.68,10.64-6.55,13.51-4.91,13.51,8.19,16,5.73,2.45-5.73,4.91-5.73,7.37,1.63,9.42-4.92,11-2.86,8.18-11.46-7-10.65-2.86-13.1,11.46-.41,13.1-4.51-1.64-6.14,2.87-7.78,10.23-1.63,8.59,1.64.83,9.42-2,11.87.82,6.56,2.45,7.38,6.15,12.69,12.29,14.33a19.25,19.25,0,0,0,4,.54Z" style="fill:#fff"/><path d="M463,522.53c-2.15-1.11-1.63-4.23-2.72-4s-1.37,2.19-2.32,1.64-4.1-.27-4.78.55-6.55,1.5-7.78.13-3.14-6,0-7.36,7,1.63,8.33,1,2.32-2.86,4.09-2,3.27,3.28,4.37,2,1.64-7.64,4.36-6.14.82,9.55-.41,9.55-2.31-.13-.81,1.91S468.33,525.26,463,522.53Z" style="fill:#fff"/><path d="M821.94,1113.07c-1.63.82-3,2.46-4.64,1.37s-4.91-5.74-6.27-5.19-.82,3-3,1.91-6.55-3.55-8.46-3.27-3.27,3-5.73,2.73-5.73-1.1-7.1-1.1-3-3-7.64-4.09-11.46-2.73-11.46-4.91-5.74-15.83-12.83-21-13.38-8.46-18-8.46-10.1,2.18-12.55,2.18-4.91-3.82-7.92-4.64-7.91-1.91-12.55-6.28-5.74-6.28-8.19-6.82-7.65.27-9.56-2.18-9-6.55-11.46-8.19-6-9.83-9.56-9.83-8.73.27-9.82-.82-6.55-7.64-10.37-7.64-14.47,2.73-18.56,1.36-5.46-9.28-8.19-9.82-6-3.28-6.28-5.74-4.64-6.55-3-7.36.81-4.1,3-6-1.09-2.46,0-5.19a22.62,22.62,0,0,0,1.91-8.73c0-3.28,4.37-4.09,5.73-5.73s6.28-1.37,7.64-3.55,5.74-2.73,5.19-4.37-2.73-3.55,0-3.55,3.55,3,4.92,4.92,2.72,7.09,4.9,7.64,3.83,3.82,6.28,2.19,10.38-2.46,10.38-5.47-2.19-3.55-.55-5.73.55-4.64,4.1-4.37,6.27,3,8.18,1.37,4.65-5.73,6.83-4.64,5.46,10.92,7.1,11.46,6.28-2.18,7.91-1.64.55,5.74,3.55,7.1S707,988.6,713,987.51s12-6.27,14.74-6.27,8.46,3.54,11.73,2.45,19.11.82,21.3-1.91,9.82-1.91,12.55-3.55,7.64-.82,8.46-3,4.64-7.37,7.65-7.37,7.64-.27,10.64-2.18,2.73,2.45,8.46,2.72,4.1,4.65,7.37,3,9-7.1,9.82-8.47,4.37,1.65,7.1.28,8.74-7.92,13.65-9.55,4.91,1.63,7.37,1.63-.55,1.64-2.18,3,.54,7.37-.82,8.73-3.28,7.65-8.19,13.38-19.11,25.65-18.56,28.11,1.09,7.1-.55,9.28.82,5.73-1.09,7.92-3.28,4.36-5.19,9.82-.81,13.38.83,14.2,7.36,1.36,8.73,3.27,4.36,3.28,2.45,4.1-4.91.54-4.91,3,1.09,4.64,2.46,5.46.54,4.36,3,5.46,7.1,7.09,5.73,7.09-4.09-.81-4.91,1.37-1.91,4.64-3.82,4.91-6,6-6,8.46-3,7.37-2.18,10.1S823,1112.53,821.94,1113.07Z" style="fill:#fff"/><path d="M334.17,893.07c-2.9-.48-4.64-6.83-7.65-6.28s-9.27,3.55-10.37,2.19,1.64-2.19,0-4.64-3.27-4.91-3-7.1-3.82-3.55-4.64-5.46-3.55-7.64-5.18-8.74-4.92-4.9-4.64-6.27,6.27-1.64,6.27-3.55a18.94,18.94,0,0,0-2.18-7.64c-1.09-1.64-3-3.55-1.91-4.37s3.55-1.91,2.18-4.37-3.82-3.82-1.09-4.91,6.28-3.55,6.28-8.46-2.46-18.84,0-18,3.28,5.73,4.09,3.82,6.28-14.19,4.37-16.37-5.46-3.55-6.82-3-.55,4.92-2.19,3.55-3.27-1.91-2.73-3.27-3-3.83-1.63-4.92,3-1.91,2.45-4.37-4.09-3.54-.82-3.54,7.92.27,7.37-4.64-2.45-5.74-1.64-9,2.74-6.55,2.46-9.28-6.82-3-6.82-6,1.64-6.82,1.09-9.82-5.73-6.55-5.73-9,.27-6-1.64-6-4.1,3.28-5.18,2.19.81-4.1-1.37-3.83-4.37,4.37-4.91,2.74,1.09-4.37,2.73-5.19,2.18-3.28,2.18-4.64-3.82-5.19-2.73-6.82.82-3.28,1.09-5.19,5.46-4.09,4.64-6.82-3-5.19-1.91-7.1,2.73-2.46,3,.27,1.37,7.37,3.82,9,8.47,2.18,11.47,3,7.37,1.91,11.19-.82,4.09-4.37,7.92-4.64,13.64-6,14.74-9.28,5.73-6.28,7.64-7.91,2.45-4.64,6.28-4.64,8.19-2.19,7.91-3.28-2.73-2.18-.27-3.27-3.27-4.1.27-4.1,5.19-1.36,6,0,1.63,5.46,2.73,5.46,4.37-1.91,5.46-.82,3.54,3,4.64,4.37.27,7.37,1.63,6.28,1.37-4.37,3.82-3.83,6.83,3,4.92,4.64-5.19,6.83-3.55,6.83,6-.3,6.55.54c2.73,4.58-1.09,4.37-2.18,6s-3.83,4.91-1.64,4.91,3.55-1.09,4.91-1.09-1.64,1.64,1.09,3.55,4.65,3.27,3.56,5.46-1.64,4.37-.83,6,1.92,7.65,3,7.92.54,10.1,2.73,10.92,3.82,5.18,2.73,7.09-3.28,11.74-4.64,12-10.38,7.64-10.38,12.28,4.1,13.37,6.28,15.56-.54,6-1.36,7.91-1.64,4.1-.55,6.28-1.91,4.91-2.18,7.37-.55,7.37,0,9.28-2.19,10.65-2.46,12.83-2.18,9.83-1.64,13.37-3,10.92-2.46,14.47,4.1,4.91,1.1,6-4.64,1.64-4.64,4.09.55,9.83-1.09,11.19-4.1,4.1-4.1,2.46.27-2.46-1.91-2.46-5.18.55-6.28-1.09-9.28-9.82-13.65-9-3.82,4.37-5.18,4.1-7.65-9.83-9-8.46,3,5.18,2.19,6-4.65,3.55-4.37,8.46,3.27,6.83,2.46,7.37-.83,3-2.19,4.37S335.81,893.34,334.17,893.07Z" style="fill:#fff"/><path d="M301.41,883.24c-2-.86-7.37-13.64-2.45-14.19s5.46,0,6.82,1.91S303.33,884.06,301.41,883.24Z" style="fill:#fff"/><path d="M291.86,869.05c-1.15,0-4.37-3.27-3-5.19s4.64-4.36,4.91-2.18S293,869.05,291.86,869.05Z" style="fill:#fff"/><path d="M299.78,685.08c-1.37-.55-3.28-.82-2.73-3.28s5.73-5.18,5.73-6.28,2.73-3.54,3.82-2.73,1.09,5.19,0,5.46-4.64.82-5.46,2.19S301.14,685.62,299.78,685.08Z" style="fill:#fff"/><path d="M724.5,720.56c-1.26,1.51-5.18,2.73-7.09,1.09s-1.64-4.91.81-5.18S725.86,718.92,724.5,720.56Z" style="fill:#fff"/><g id="logo"><path id="Tracciato_13" data-name="Tracciato 13" d="M438,244.59c-.52-4.21-5.64-10.19-5.64-10.19l1.85-2.21L430,227.8l-1.76,2.1-.31.34.23-.25-4.75-4.84a18.25,18.25,0,0,1,4.5-3.46,2.7,2.7,0,0,1,3.6.45c1.24,1.21-.06,3.61-.06,3.61,2.57,2.74,4,4.13,4,4.13a13.62,13.62,0,0,0,1.91-4.24,8.36,8.36,0,0,0-3-8.54,7.35,7.35,0,0,0-5.81-1.46c-3.92.61-9.4,5.53-9.4,5.53l-2.35-1.8-4.12,4,2,1.93s-.83.86-1.84,1.93h0l-.76.82c-.51.54-1,1.09-1.46,1.58l-.55.58a26.46,26.46,0,0,1-3.61-4.93,3.1,3.1,0,0,1,.22-3.1c1.42-1.42,4-.22,4-.22,2.68-2.68,4-3.92,4-3.92a13.63,13.63,0,0,0-3.81-1.82,8.56,8.56,0,0,0-9.09,3.05,8.32,8.32,0,0,0-1.25,5.69c.6,4.2,5.49,9.68,5.49,9.68L404.25,237l4,4.49,1.86-2.19s2.95,3,4.81,4.8a28.45,28.45,0,0,1-4.55,3.56,2.71,2.71,0,0,1-3.59-.44c-1.25-1.21.05-3.62.05-3.62-2.58-2.73-4-4.11-4-4.11a13.13,13.13,0,0,0-1.9,4.23,8.36,8.36,0,0,0,3,8.54,7.36,7.36,0,0,0,5.8,1.45c3.11-.49,7.8-4.16,9.61-5.66l2.05,1.84a38.93,38.93,0,0,0,4.45-4.16c-.72-.58-1.42-1.17-2.09-1.75l4.61-5a26.15,26.15,0,0,1,3.54,5,2.89,2.89,0,0,1-.22,3.14c-1.4,1.48-3.87.1-3.87.1-2.74,2.63-4.06,4.06-4.06,4.06a11.78,11.78,0,0,0,3.5,1.77,8.08,8.08,0,0,0,9-2.62,8.2,8.2,0,0,0,1.71-5.8m-18.71-4.81c-3.06-2.93-5-5.08-5-5.08l3.1-3.39h0a24.2,24.2,0,0,1,1.88-1.91l5,5.07h0Z" style="fill:#840021"/></g><g id="logo-2"><path id="Tracciato_13-2" data-name="Tracciato 13-2" d="M467.94,317c-.52-4.21-5.64-10.19-5.64-10.19l1.85-2.21-4.2-4.39-1.76,2.1-.31.34.23-.25-4.75-4.87a18.63,18.63,0,0,1,4.5-3.46,2.7,2.7,0,0,1,3.59.45c1.25,1.21,0,3.62,0,3.62,2.57,2.73,4,4.12,4,4.12a13.25,13.25,0,0,0,1.91-4.23,8.36,8.36,0,0,0-3-8.55,7.35,7.35,0,0,0-5.81-1.46c-3.92.61-9.4,5.53-9.4,5.53l-2.35-1.8-4.12,4,2,1.93s-.83.86-1.84,1.93h0l-.76.82c-.51.54-1,1.09-1.46,1.58l-.55.58a26.13,26.13,0,0,1-3.61-4.93,3.13,3.13,0,0,1,.22-3.1c1.41-1.42,4-.22,4-.22,2.68-2.68,4-3.92,4-3.92a13.78,13.78,0,0,0-3.81-1.82,8.59,8.59,0,0,0-9.09,3,8.44,8.44,0,0,0-1.25,5.69c.6,4.2,5.49,9.68,5.49,9.68l-1.79,2.36,4.09,4.46,1.86-2.19s2.94,3,4.81,4.8a27.89,27.89,0,0,1-4.63,3.6,2.71,2.71,0,0,1-3.59-.44c-1.25-1.21.05-3.62.05-3.62-2.58-2.73-4-4.11-4-4.11a13.45,13.45,0,0,0-1.9,4.23,8.36,8.36,0,0,0,3,8.54,7.37,7.37,0,0,0,5.8,1.45c3.11-.49,7.8-4.16,9.61-5.66l2,1.84a38.93,38.93,0,0,0,4.45-4.16c-.72-.58-1.42-1.17-2.09-1.75l4.61-5a26.15,26.15,0,0,1,3.54,5,2.87,2.87,0,0,1-.22,3.14c-1.4,1.48-3.87.1-3.87.1-2.74,2.63-4.06,4.06-4.06,4.06a11.9,11.9,0,0,0,3.5,1.77c6.05,1.73,9-2.62,9-2.62a8.09,8.09,0,0,0,1.71-5.8m-18.77-4.81c-3.06-2.93-5-5.08-5-5.08l3.1-3.39h0a26.08,26.08,0,0,1,1.88-1.91l5,5.07h0Z" style="fill:#840021"/></g><g id="logo-4"><path id="Tracciato_13-4" data-name="Tracciato 13-4" d="M316,352.28c-.52-4.21-5.65-10.19-5.65-10.19l1.86-2.21L308,335.49l-1.76,2.1-.3.34.23-.25-4.76-4.84a19,19,0,0,1,4.51-3.46,2.71,2.71,0,0,1,3.59.45c1.25,1.21-.05,3.62-.05,3.62,2.57,2.73,4,4.12,4,4.12a13.34,13.34,0,0,0,1.9-4.23,8.35,8.35,0,0,0-3-8.55,7.33,7.33,0,0,0-5.8-1.46c-3.93.61-9.4,5.53-9.4,5.53l-2.35-1.8-4.12,4,2,1.93s-.83.86-1.84,1.93h0l-.76.82-1.55,1.54-.54.58a25,25,0,0,1-3.61-4.93,3.06,3.06,0,0,1,.22-3.1c1.41-1.42,4-.22,4-.22,2.68-2.68,4-3.92,4-3.92a14,14,0,0,0-3.82-1.82,8.58,8.58,0,0,0-9.08,3,8.35,8.35,0,0,0-1.26,5.69c.6,4.2,5.5,9.68,5.5,9.68l-1.8,2.36,4.1,4.46,1.85-2.19s2.95,3,4.82,4.8a28.9,28.9,0,0,1-4.55,3.56,2.7,2.7,0,0,1-3.6-.44c-1.24-1.21.05-3.62.05-3.62-2.57-2.73-4-4.11-4-4.11a13,13,0,0,0-1.9,4.23,8.34,8.34,0,0,0,3,8.54,7.34,7.34,0,0,0,5.81,1.45c3.11-.49,7.8-4.16,9.61-5.66l2.05,1.84a38.78,38.78,0,0,0,4.44-4.16c-.71-.58-1.41-1.17-2.09-1.75l4.62-5a27.26,27.26,0,0,1,3.54,5,2.91,2.91,0,0,1-.22,3.14c-1.4,1.48-3.88.1-3.88.1-2.73,2.63-4,4.06-4,4.06a11.55,11.55,0,0,0,3.5,1.77,8.08,8.08,0,0,0,9-2.62,8.18,8.18,0,0,0,1.72-5.8m-18.77-4.81c-3.07-2.93-5-5.08-5-5.08l3.1-3.39h0a26,26,0,0,1,1.88-1.91l5,5.07h0Z" style="fill:#840021"/></g><g id="logo-4-2" data-name="logo-4"><path id="Tracciato_13-4-2" data-name="Tracciato 13-4" d="M280,341.14c-.52-4.21-5.65-10.19-5.65-10.19l1.86-2.21L272,324.35l-1.76,2.1-.3.34.23-.25-4.76-4.84a19,19,0,0,1,4.51-3.46,2.71,2.71,0,0,1,3.59.45c1.25,1.21-.05,3.62-.05,3.62,2.57,2.73,4,4.12,4,4.12a13.13,13.13,0,0,0,1.9-4.23,8.33,8.33,0,0,0-3-8.55,7.33,7.33,0,0,0-5.8-1.46c-3.93.61-9.4,5.53-9.4,5.53l-2.35-1.8-4.12,4,2,1.93s-.83.86-1.84,1.93h0l-.76.82-1.55,1.54-.54.58a25,25,0,0,1-3.61-4.93,3.08,3.08,0,0,1,.22-3.1c1.41-1.42,4-.22,4-.22,2.68-2.68,4-3.92,4-3.92a13.84,13.84,0,0,0-3.82-1.82,8.58,8.58,0,0,0-9.08,3,8.35,8.35,0,0,0-1.26,5.69c.6,4.2,5.5,9.68,5.5,9.68l-1.8,2.36,4.1,4.46,1.85-2.19s3,3,4.82,4.8a28.45,28.45,0,0,1-4.55,3.56,2.7,2.7,0,0,1-3.6-.44c-1.24-1.21,0-3.62,0-3.62-2.57-2.73-4-4.11-4-4.11a13.22,13.22,0,0,0-1.9,4.23,8.34,8.34,0,0,0,3,8.54,7.34,7.34,0,0,0,5.81,1.45c3.11-.49,7.8-4.16,9.61-5.66l2.05,1.84a38.78,38.78,0,0,0,4.44-4.16c-.71-.58-1.41-1.17-2.09-1.75l4.62-5a26.79,26.79,0,0,1,3.54,5,2.91,2.91,0,0,1-.22,3.14c-1.4,1.48-3.88.1-3.88.1-2.73,2.63-4.05,4.06-4.05,4.06a11.55,11.55,0,0,0,3.5,1.77,8.08,8.08,0,0,0,9-2.62,8.18,8.18,0,0,0,1.72-5.8m-18.77-4.81c-3.07-2.93-5-5.08-5-5.08l3.1-3.39h0a26,26,0,0,1,1.88-1.91l5,5.07h0Z" style="fill:#840021"/></g><path d="M471.8,244.28a8.92,8.92,0,0,1-4-.88,6.69,6.69,0,0,1-2.84-2.66,8.84,8.84,0,0,1-1-4.53V223.77h3.69v12.47a4.32,4.32,0,0,0,7.43,3.52,4.8,4.8,0,0,0,1.15-3.52V223.77h3.69v12.44a8.55,8.55,0,0,1-1.1,4.53,7,7,0,0,1-2.92,2.66A9.3,9.3,0,0,1,471.8,244.28Z"/><path d="M483.55,243.93V229.65h3.29l.34,2.68a5.79,5.79,0,0,1,5.27-3v3.89h-1a5.82,5.82,0,0,0-2.18.37,3,3,0,0,0-1.49,1.3,5.24,5.24,0,0,0-.53,2.56V244Z"/><path d="M500.66,239.67a8.35,8.35,0,0,1-1.93-.23l-1.07,1.07a5.59,5.59,0,0,0,1.33.43c.56.11,1.46.23,2.71.34a7.44,7.44,0,0,1,4.14,1.36,3.73,3.73,0,0,1,1.3,3,4.59,4.59,0,0,1-.69,2.41,5.07,5.07,0,0,1-2.13,1.84,8.49,8.49,0,0,1-3.69.7,9.36,9.36,0,0,1-4.92-1.13,3.75,3.75,0,0,1-1.88-3.42,4.1,4.1,0,0,1,1.88-3.34,6,6,0,0,1-1-.54,6.21,6.21,0,0,1-.73-.61v-.66l2.5-2.65a4.8,4.8,0,0,1-1.67-3.77,5,5,0,0,1,2.71-4.5,6.44,6.44,0,0,1,3.14-.69,6.92,6.92,0,0,1,2.25.35h5.41v2.24l-2.45.18a5.06,5.06,0,0,1,.58,2.42,5.14,5.14,0,0,1-.69,2.62,5.07,5.07,0,0,1-2,1.87A6.68,6.68,0,0,1,500.66,239.67Zm-3.46,6a1.72,1.72,0,0,0,1,1.6,5.23,5.23,0,0,0,2.43.53,4.21,4.21,0,0,0,2.25-.56,1.77,1.77,0,0,0,.86-1.51,1.72,1.72,0,0,0-.56-1.3,3.76,3.76,0,0,0-2.23-.63c-.79-.06-1.52-.15-2.19-.26a3.15,3.15,0,0,0-1.2,1,2,2,0,0,0-.36,1.15Zm3.46-8.84a2.85,2.85,0,0,0,1.86-.61,2.4,2.4,0,0,0,.05-3.4.12.12,0,0,0-.05,0,3.18,3.18,0,0,0-3.76,0,2.42,2.42,0,0,0,0,3.43v0a2.83,2.83,0,0,0,1.9.63Z"/><path d="M511,243.93V229.65h3.27l.29,2.42a4.93,4.93,0,0,1,1.92-2,5.52,5.52,0,0,1,2.95-.75,5.19,5.19,0,0,1,4.12,1.67,7.25,7.25,0,0,1,1.47,4.9V244h-3.75v-7.72a4.6,4.6,0,0,0-.75-2.82,2.73,2.73,0,0,0-2.33-1,3.26,3.26,0,0,0-2.55,1.1,4.33,4.33,0,0,0-1,3.05v7.37Z"/><path d="M533.43,244.28a6.88,6.88,0,0,1-3-.59A4,4,0,0,1,528.1,240a3.88,3.88,0,0,1,1.55-3.23,7.41,7.41,0,0,1,4.62-1.24h3.63v-.34a2.63,2.63,0,0,0-.84-2.16,3.12,3.12,0,0,0-2.07-.69,3.52,3.52,0,0,0-2,.53,2.31,2.31,0,0,0-1,1.57h-3.6a5,5,0,0,1,1.05-2.71,5.86,5.86,0,0,1,2.35-1.77,7.94,7.94,0,0,1,3.23-.62,7,7,0,0,1,4.8,1.53,5.38,5.38,0,0,1,1.76,4.32v8.78h-3.11l-.34-2.3a5.65,5.65,0,0,1-1.77,1.9A5.28,5.28,0,0,1,533.43,244.28Zm.84-2.88a3.06,3.06,0,0,0,2.46-1,5.05,5.05,0,0,0,1.11-2.56H534.7a3.25,3.25,0,0,0-2.1.53,1.65,1.65,0,0,0-.64,1.31,1.53,1.53,0,0,0,.64,1.3A2.88,2.88,0,0,0,534.27,241.4Z"/><path d="M545.13,243.93V229.65h3.25l.29,2.42a4.91,4.91,0,0,1,1.91-2,5.54,5.54,0,0,1,3-.75,5.16,5.16,0,0,1,4.11,1.67,7.25,7.25,0,0,1,1.47,4.9V244h-3.68v-7.72a4.6,4.6,0,0,0-.75-2.82,2.75,2.75,0,0,0-2.34-1,3.24,3.24,0,0,0-2.54,1.1,4.33,4.33,0,0,0-1,3.05v7.37Z"/><path d="M569.49,244.28a7.48,7.48,0,0,1-3.73-.95,7,7,0,0,1-2.62-2.64,7.74,7.74,0,0,1-1-3.9,7.59,7.59,0,0,1,1-3.9,7.12,7.12,0,0,1,2.64-2.64,7.72,7.72,0,0,1,7.43,0,7,7,0,0,1,2.62,2.64,8.34,8.34,0,0,1,0,7.8,7,7,0,0,1-2.63,2.64A7.51,7.51,0,0,1,569.49,244.28Zm0-3.2A3.45,3.45,0,0,0,572,240a5.4,5.4,0,0,0,0-6.42,3.44,3.44,0,0,0-4.85-.16l-.15.16a5.43,5.43,0,0,0,0,6.42A3.39,3.39,0,0,0,569.49,241.08Z"/><path d="M492.09,317.59a9.39,9.39,0,0,1-3.92-.76,6.37,6.37,0,0,1-2.68-2.19,6.11,6.11,0,0,1-1-3.47h3.89a3.41,3.41,0,0,0,1,2.37,4.18,4.18,0,0,0,5,.26,2.32,2.32,0,0,0,.86-1.88,2.48,2.48,0,0,0-.76-1.93,5.84,5.84,0,0,0-2-1.13l-2.71-.92a9,9,0,0,1-3.55-2.07A4.63,4.63,0,0,1,485,302.5a5.14,5.14,0,0,1,.85-3.07,5.93,5.93,0,0,1,2.41-2,8.13,8.13,0,0,1,3.51-.7,8.25,8.25,0,0,1,3.56.72,5.49,5.49,0,0,1,3.35,5.08h-3.94a2.85,2.85,0,0,0-.82-1.89,2.94,2.94,0,0,0-2.21-.82,3.1,3.1,0,0,0-2,.59,2.37,2.37,0,0,0-.25,3.34l.06.06a5.16,5.16,0,0,0,1.73,1c.73.27,1.57.56,2.51.87a15.44,15.44,0,0,1,2.73,1.21,5.63,5.63,0,0,1,2,1.82,5.28,5.28,0,0,1,.75,2.93,5.76,5.76,0,0,1-.81,2.94,5.88,5.88,0,0,1-2.39,2.17A8.41,8.41,0,0,1,492.09,317.59Z"/><path d="M509.16,317.59a7.45,7.45,0,0,1-3.73-.95,7,7,0,0,1-2.62-2.64,7.64,7.64,0,0,1-1-3.9,7.4,7.4,0,0,1,1-3.9,7,7,0,0,1,2.63-2.64,7.39,7.39,0,0,1,3.73-1,7.31,7.31,0,0,1,3.7,1,7.06,7.06,0,0,1,2.62,2.64,8.34,8.34,0,0,1,0,7.8,7,7,0,0,1-2.63,2.64A7.5,7.5,0,0,1,509.16,317.59Zm0-3.2a3.45,3.45,0,0,0,2.51-1.08,5.37,5.37,0,0,0,0-6.42,3.43,3.43,0,0,0-4.85-.15,1.06,1.06,0,0,0-.15.15,5.43,5.43,0,0,0,0,6.42A3.39,3.39,0,0,0,509.16,314.39Z"/><path d="M519.76,317.24V303H523l.35,2.68a5.83,5.83,0,0,1,5.27-3v3.89h-1a5.89,5.89,0,0,0-2.16.38A2.92,2.92,0,0,0,524,308.2a5.07,5.07,0,0,0-.53,2.57v6.5Z"/><path d="M539.63,317.59a6.36,6.36,0,0,1-2.82-.6,5.08,5.08,0,0,1-2-1.7l-.4,1.95h-3.28V296.51h3.68V305a6.35,6.35,0,0,1,1.83-1.67,5.33,5.33,0,0,1,3-.72,6.66,6.66,0,0,1,3.6,1,7.18,7.18,0,0,1,2.51,2.68,8.58,8.58,0,0,1,0,7.71,7.1,7.1,0,0,1-2.51,2.65A6.85,6.85,0,0,1,539.63,317.59Zm-.77-3.23a3.9,3.9,0,0,0,2.9-1.18,4.2,4.2,0,0,0,1.16-3,4.28,4.28,0,0,0-1.16-3.08,3.77,3.77,0,0,0-2.9-1.21,3.84,3.84,0,0,0-2.93,1.2,4.69,4.69,0,0,0,0,6.13A3.84,3.84,0,0,0,538.86,314.36Z"/><path d="M556.8,317.59a7.35,7.35,0,0,1-3.73-.95,6.85,6.85,0,0,1-2.62-2.64,8.29,8.29,0,0,1,0-7.8,7.12,7.12,0,0,1,2.64-2.64,7.72,7.72,0,0,1,7.43,0,7.14,7.14,0,0,1,2.62,2.64,8.4,8.4,0,0,1,0,7.8,6.9,6.9,0,0,1-2.64,2.64A7.5,7.5,0,0,1,556.8,317.59Zm0-3.2a3.44,3.44,0,0,0,2.5-1.08,5.37,5.37,0,0,0,0-6.42,3.43,3.43,0,0,0-4.84-.17,1.29,1.29,0,0,0-.16.17,5.43,5.43,0,0,0,0,6.42A3.37,3.37,0,0,0,556.8,314.39Z"/><path d="M567.4,317.24V296.51h3.68v20.73Z"/><path d="M581.71,317.59a7.35,7.35,0,0,1-3.73-.95,6.82,6.82,0,0,1-2.66-2.64,7.64,7.64,0,0,1-1-3.9,7.49,7.49,0,0,1,1-3.9,7.12,7.12,0,0,1,2.64-2.64,7.72,7.72,0,0,1,7.43,0A7.14,7.14,0,0,1,588,306.2a8.34,8.34,0,0,1,0,7.8,6.9,6.9,0,0,1-2.64,2.64A7.45,7.45,0,0,1,581.71,317.59Zm0-3.2a3.47,3.47,0,0,0,2.51-1.08,5.4,5.4,0,0,0,0-6.42,3.43,3.43,0,0,0-4.85-.15,1.06,1.06,0,0,0-.15.15,5.43,5.43,0,0,0,0,6.42A3.39,3.39,0,0,0,581.71,314.39Z"/><path d="M230.5,401.45V381.28h13v3h-9.33v5.65h7.54v2.9h-7.54v8.65Z"/><path d="M250,401.79a6.58,6.58,0,0,1-3-.59,3.94,3.94,0,0,1-1.76-1.57,4.1,4.1,0,0,1-.58-2.16,4,4,0,0,1,1.56-3.23,7.45,7.45,0,0,1,4.66-1.23h3.63v-.35a2.69,2.69,0,0,0-.83-2.16,3.2,3.2,0,0,0-2.08-.69,3.68,3.68,0,0,0-2,.53,2.28,2.28,0,0,0-1,1.57H245a5,5,0,0,1,1.05-2.71,6.05,6.05,0,0,1,2.35-1.77,8.24,8.24,0,0,1,3.22-.62,7.1,7.1,0,0,1,4.81,1.53,5.48,5.48,0,0,1,1.76,4.32v8.79h-3.14l-.35-2.31a5.29,5.29,0,0,1-1.77,1.9A5.12,5.12,0,0,1,250,401.79Zm.83-2.88a3,3,0,0,0,2.47-1,5.16,5.16,0,0,0,1.11-2.63h-3.14a3.39,3.39,0,0,0-2.11.53,1.67,1.67,0,0,0-.63,1.31,1.48,1.48,0,0,0,.63,1.3,2.75,2.75,0,0,0,1.67.49Z"/><path d="M261.69,401.45V387.16H265l.34,2.68a5.85,5.85,0,0,1,5.27-3v3.89h-1a5.89,5.89,0,0,0-2.16.38A3,3,0,0,0,266,392.4a5.11,5.11,0,0,0-.53,2.57v6.51Z"/><path d="M275.08,384.94a2.28,2.28,0,0,1-1.65-.6,2.1,2.1,0,0,1,0-3,2.63,2.63,0,0,1,3.31,0,2,2,0,0,1,.65,1.51,2,2,0,0,1-.65,1.53A2.32,2.32,0,0,1,275.08,384.94Zm-1.84,16.51V387.16h3.67v14.29Z"/><path d="M286.83,397.18a7.39,7.39,0,0,1-1.93-.23L283.84,398a5.1,5.1,0,0,0,1.32.43,24.48,24.48,0,0,0,2.71.35,7.54,7.54,0,0,1,4.15,1.35,3.78,3.78,0,0,1,1.29,3,4.53,4.53,0,0,1-.69,2.41,4.93,4.93,0,0,1-2.13,1.84,8.2,8.2,0,0,1-3.68.71,9.29,9.29,0,0,1-4.93-1.14,3.7,3.7,0,0,1-1.87-3.41,4.12,4.12,0,0,1,1.9-3.28,6.06,6.06,0,0,1-1-.55,3.94,3.94,0,0,1-.74-.61v-.66l2.51-2.65A4.74,4.74,0,0,1,281,392a4.93,4.93,0,0,1,2.71-4.49,6.77,6.77,0,0,1,3.13-.7,7.5,7.5,0,0,1,2.25.35h5.41v2.25l-2.44.17a5.22,5.22,0,0,1,.57,2.42,5.11,5.11,0,0,1-.69,2.62,4.93,4.93,0,0,1-2,1.87A6.49,6.49,0,0,1,286.83,397.18Zm-3.45,6a1.69,1.69,0,0,0,1,1.6,4.9,4.9,0,0,0,2.44.53,3.94,3.94,0,0,0,2.24-.56,1.73,1.73,0,0,0,.28-2.77,3.91,3.91,0,0,0-2.23-.63c-.79-.06-1.51-.14-2.19-.26a3.39,3.39,0,0,0-1.19,1,2,2,0,0,0-.35,1.11Zm3.45-8.84a2.79,2.79,0,0,0,1.86-.6,2.4,2.4,0,0,0,.08-3.38.3.3,0,0,1-.08-.08,2.91,2.91,0,0,0-1.86-.61,2.94,2.94,0,0,0-1.9.61,2.44,2.44,0,0,0,0,3.45h0a2.84,2.84,0,0,0,1.9.62Z"/><path d="M297.17,401.45V380.71h3.74v20.74Z"/><path d="M306.62,384.94a2.31,2.31,0,0,1-1.66-.6,2.12,2.12,0,0,1,0-3,2.65,2.65,0,0,1,3.32,0,2,2,0,0,1,.64,1.51,2,2,0,0,1-.64,1.53A2.32,2.32,0,0,1,306.62,384.94Zm-1.84,16.51V387.16h3.68v14.29Z"/><path d="M317.25,401.79a6.71,6.71,0,0,1-3-.59,4.05,4.05,0,0,1-1.76-1.57,4.18,4.18,0,0,1-.57-2.16,4,4,0,0,1,1.55-3.23,7.48,7.48,0,0,1,4.67-1.23h3.63v-.35a2.63,2.63,0,0,0-.84-2.16,3.18,3.18,0,0,0-2.07-.69,3.68,3.68,0,0,0-2,.53,2.31,2.31,0,0,0-1,1.57h-3.6a5.09,5.09,0,0,1,1.06-2.71,6,6,0,0,1,2.34-1.77,8.29,8.29,0,0,1,3.23-.62,7.15,7.15,0,0,1,4.81,1.53,5.47,5.47,0,0,1,1.75,4.32v8.79h-3.13l-.35-2.31a5.29,5.29,0,0,1-1.77,1.9A5.21,5.21,0,0,1,317.25,401.79Zm.83-2.88a3,3,0,0,0,2.46-1,5,5,0,0,0,1.11-2.56h-3.14a3.38,3.38,0,0,0-2.1.53,1.67,1.67,0,0,0-.63,1.31,1.48,1.48,0,0,0,.63,1.3,2.65,2.65,0,0,0,1.67.42Z"/><path d="M328.91,401.45V387.16h3.25l.29,2.42a5.06,5.06,0,0,1,1.92-2,5.71,5.71,0,0,1,2.95-.75,5.22,5.22,0,0,1,4.12,1.68,7.24,7.24,0,0,1,1.47,4.87v8.07h-3.69v-7.72a4.65,4.65,0,0,0-.75-2.83,2.78,2.78,0,0,0-2.33-1,3.28,3.28,0,0,0-2.55,1.09,4.36,4.36,0,0,0-1,3.05v7.38Z"/><path d="M353.3,401.79a7.35,7.35,0,0,1-3.73-1A6.92,6.92,0,0,1,347,398.2a8.1,8.1,0,0,1,0-7.8,7.16,7.16,0,0,1,2.63-2.64,7.5,7.5,0,0,1,3.73-1,7.41,7.41,0,0,1,3.7,1,7.06,7.06,0,0,1,2.62,2.64,8.34,8.34,0,0,1,0,7.8,6.88,6.88,0,0,1-2.63,2.64A7.29,7.29,0,0,1,353.3,401.79Zm0-3.2a3.37,3.37,0,0,0,2.51-1.08,5.4,5.4,0,0,0,0-6.42,3.44,3.44,0,0,0-4.85-.15l-.15.15a5.43,5.43,0,0,0,0,6.42A3.31,3.31,0,0,0,353.3,398.59Z"/><path d="M125.59,326.71V306.54h13v3h-9.34v5.64h7.55v2.91h-7.55v8.64Z"/><path d="M147.48,327.06a7.3,7.3,0,0,1-3.73-1,6.89,6.89,0,0,1-2.62-2.63,8.12,8.12,0,0,1,0-7.81,7.06,7.06,0,0,1,2.63-2.63,7.74,7.74,0,0,1,7.43,0,7,7,0,0,1,2.62,2.63,8.36,8.36,0,0,1,0,7.81,6.92,6.92,0,0,1-2.63,2.63A7.31,7.31,0,0,1,147.48,327.06Zm0-3.2a3.41,3.41,0,0,0,2.51-1.08,5.4,5.4,0,0,0,0-6.42,3.43,3.43,0,0,0-4.85-.15l-.15.15a5.43,5.43,0,0,0,0,6.42,3.31,3.31,0,0,0,2.49,1.08Z"/><path d="M164,327.06a8.47,8.47,0,0,1-3.34-.62,5.75,5.75,0,0,1-2.3-1.72,5,5,0,0,1-1-2.53h3.72a2.33,2.33,0,0,0,.93,1.42,3.1,3.1,0,0,0,2,.59,2.67,2.67,0,0,0,1.77-.49,1.48,1.48,0,0,0,.56-1.12,1.24,1.24,0,0,0-.81-1.25,13.64,13.64,0,0,0-2.24-.65c-.62-.13-1.24-.3-1.87-.49a8.4,8.4,0,0,1-1.75-.73,3.75,3.75,0,0,1-1.28-1.16,3,3,0,0,1-.49-1.74,4,4,0,0,1,1.51-3.19,6.36,6.36,0,0,1,4.25-1.3,6.45,6.45,0,0,1,4,1.18,4.82,4.82,0,0,1,1.8,3.25H166c-.21-1.05-1-1.58-2.39-1.58a2.81,2.81,0,0,0-1.6.4,1.24,1.24,0,0,0-.56,1c0,.42.28.76.84,1a12.16,12.16,0,0,0,2.22.69c1,.23,1.91.49,2.75.76a4.79,4.79,0,0,1,2,1.24,3.39,3.39,0,0,1,.75,2.35,4.12,4.12,0,0,1-.69,2.39,4.85,4.85,0,0,1-2.08,1.67A7.89,7.89,0,0,1,164,327.06Z"/><path d="M179.1,327.06a8.47,8.47,0,0,1-3.34-.62,5.75,5.75,0,0,1-2.3-1.72,5,5,0,0,1-1-2.53h3.72a2.33,2.33,0,0,0,.93,1.42,3.1,3.1,0,0,0,2,.59,2.67,2.67,0,0,0,1.77-.49,1.48,1.48,0,0,0,.56-1.12,1.24,1.24,0,0,0-.81-1.25,13.64,13.64,0,0,0-2.24-.65c-.62-.13-1.24-.3-1.87-.49a8.4,8.4,0,0,1-1.75-.73,3.75,3.75,0,0,1-1.28-1.16,3,3,0,0,1-.49-1.74,4,4,0,0,1,1.51-3.19,6.36,6.36,0,0,1,4.25-1.3,6.45,6.45,0,0,1,4.05,1.18,4.82,4.82,0,0,1,1.8,3.25h-3.49c-.21-1.05-1-1.58-2.39-1.58a2.81,2.81,0,0,0-1.6.4,1.24,1.24,0,0,0-.56,1c0,.42.28.76.84,1a12.16,12.16,0,0,0,2.22.69c1,.23,1.91.49,2.75.76a4.79,4.79,0,0,1,2,1.24,3.39,3.39,0,0,1,.75,2.35,4.13,4.13,0,0,1-.7,2.39,4.69,4.69,0,0,1-2.07,1.67A7.77,7.77,0,0,1,179.1,327.06Z"/><path d="M193.25,327.06a6.88,6.88,0,0,1-3-.59,4.12,4.12,0,0,1-1.76-1.57,4.18,4.18,0,0,1-.57-2.16,4,4,0,0,1,1.55-3.23,7.43,7.43,0,0,1,4.67-1.24h3.63v-.34a2.63,2.63,0,0,0-.84-2.16,3.18,3.18,0,0,0-2.07-.7,3.61,3.61,0,0,0-2,.54,2.28,2.28,0,0,0-1,1.57h-3.61a4.9,4.9,0,0,1,1.06-2.71,5.77,5.77,0,0,1,2.34-1.77,8.29,8.29,0,0,1,3.23-.62,7.1,7.1,0,0,1,4.81,1.53,5.39,5.39,0,0,1,1.75,4.32v8.78h-3.19l-.35-2.3a5.47,5.47,0,0,1-1.77,1.9A5.14,5.14,0,0,1,193.25,327.06Zm.83-2.88a3,3,0,0,0,2.46-1,5,5,0,0,0,1.11-2.64h-3.14a3.25,3.25,0,0,0-2.1.53,1.61,1.61,0,0,0-.63,1.31,1.47,1.47,0,0,0,.63,1.29,2.69,2.69,0,0,0,1.67.51Z"/><path d="M204.94,326.71V312.43h3.25l.29,2.41a5,5,0,0,1,1.92-2,5.52,5.52,0,0,1,2.95-.75,5.26,5.26,0,0,1,4.12,1.67,7.19,7.19,0,0,1,1.46,4.9v8.06h-3.68V319a4.6,4.6,0,0,0-.75-2.82,2.78,2.78,0,0,0-2.33-1,3.28,3.28,0,0,0-2.55,1.09,4.37,4.37,0,0,0-1,3.06v7.37Z"/><path d="M229.3,327.06a7.3,7.3,0,0,1-3.73-1,6.89,6.89,0,0,1-2.62-2.63,8.12,8.12,0,0,1,0-7.81,7.06,7.06,0,0,1,2.63-2.63,7.74,7.74,0,0,1,7.43,0,7,7,0,0,1,2.62,2.63,8.36,8.36,0,0,1,0,7.81,6.92,6.92,0,0,1-2.63,2.63A7.31,7.31,0,0,1,229.3,327.06Zm0-3.2a3.41,3.41,0,0,0,2.51-1.08,5.4,5.4,0,0,0,0-6.42,3.43,3.43,0,0,0-4.85-.15l-.15.15a5.43,5.43,0,0,0,0,6.42,3.31,3.31,0,0,0,2.49,1.08Z"/><g id="logo-7"><path id="Tracciato_13-7" data-name="Tracciato 13-7" d="M916,706.52c-.52-4.2-5.64-10.18-5.64-10.18l1.85-2.21-4.2-4.4-1.76,2.1-.31.35.23-.26-4.75-4.84a18.21,18.21,0,0,1,4.5-3.45,2.71,2.71,0,0,1,3.59.44c1.25,1.21-.05,3.62-.05,3.62,2.57,2.74,4,4.12,4,4.12a13.47,13.47,0,0,0,1.91-4.23,8.34,8.34,0,0,0-3-8.54,7.34,7.34,0,0,0-5.8-1.47c-3.92.61-9.4,5.53-9.4,5.53l-2.35-1.8-4.12,4,2,1.94s-.83.85-1.84,1.92h0l-.76.82c-.51.54-1,1.09-1.46,1.58l-.55.59a26.53,26.53,0,0,1-3.61-4.94,3.1,3.1,0,0,1,.22-3.1c1.41-1.41,4-.21,4-.21,2.68-2.68,4-3.93,4-3.93a13.78,13.78,0,0,0-3.81-1.82,8.59,8.59,0,0,0-9.09,3,8.38,8.38,0,0,0-1.25,5.69c.6,4.2,5.49,9.68,5.49,9.68l-1.89,2.41,4.09,4.47,1.91-2.24s2.94,3,4.81,4.81a29,29,0,0,1-4.55,3.55,2.71,2.71,0,0,1-3.59-.44c-1.25-1.21.05-3.62.05-3.62-2.58-2.73-4-4.11-4-4.11a13.22,13.22,0,0,0-1.9,4.23,8.36,8.36,0,0,0,3,8.54,7.35,7.35,0,0,0,5.81,1.46c3.11-.49,7.8-4.16,9.61-5.67l2,1.85a38.14,38.14,0,0,0,4.45-4.17c-.72-.58-1.42-1.16-2.09-1.75l4.61-5a26.46,26.46,0,0,1,3.54,5,2.91,2.91,0,0,1-.22,3.15c-1.4,1.47-3.88.1-3.88.1-2.73,2.62-4,4-4,4a11.78,11.78,0,0,0,3.5,1.77c6,1.73,9-2.61,9-2.61a8.17,8.17,0,0,0,1.71-5.81m-18.77-4.81c-3.06-2.92-5-5.07-5-5.07l3.1-3.39h0a26.18,26.18,0,0,1,1.88-1.92l5,5.08h0Z" style="fill:#840021"/></g><path d="M834,758l7.37-20.16h4.15L852.9,758H849l-1.61-4.67h-7.86L837.87,758Zm6.51-7.55h5.84l-2.93-8.38Z"/><path d="M855.41,758V737.25h3.71V758Z"/><path d="M869.23,758a5.61,5.61,0,0,1-3.6-1.1c-.9-.73-1.35-2-1.35-3.89v-6.22h-2.45V743.7h2.45l.43-3.83H868v3.83h3.86v3.08H868V753a1.82,1.82,0,0,0,.45,1.43,2.4,2.4,0,0,0,1.54.39h1.79V758Z"/><path d="M879.91,758.33a6.88,6.88,0,0,1-3-.59,4.15,4.15,0,0,1-1.79-1.58,4.21,4.21,0,0,1-.57-2.16,3.93,3.93,0,0,1,1.55-3.22,7.37,7.37,0,0,1,4.67-1.24h3.63v-.38a2.63,2.63,0,0,0-.84-2.16,3.18,3.18,0,0,0-2.07-.69,3.62,3.62,0,0,0-2,.53,2.31,2.31,0,0,0-1,1.57h-3.6a5,5,0,0,1,1.05-2.7,6,6,0,0,1,2.35-1.78,8.1,8.1,0,0,1,3.23-.61,7.07,7.07,0,0,1,4.81,1.52,5.41,5.41,0,0,1,1.79,4.32V758H885l-.34-2.31a5,5,0,0,1-4.7,2.65Zm.84-2.88a3,3,0,0,0,2.46-1,5,5,0,0,0,1.11-2.56h-3.14a3.25,3.25,0,0,0-2.1.53,1.69,1.69,0,0,0-.63,1.32,1.53,1.53,0,0,0,.63,1.29A2.73,2.73,0,0,0,880.75,755.45Z"/><path d="M891.61,758V743.7h3.25l.32,1.93A5.21,5.21,0,0,1,897,744a5.47,5.47,0,0,1,2.63-.61,4.91,4.91,0,0,1,4.7,2.56,5.5,5.5,0,0,1,2.08-1.87,6.11,6.11,0,0,1,2.87-.69,5.47,5.47,0,0,1,4.29,1.67,7.08,7.08,0,0,1,1.5,4.89V758h-3.69v-7.72a4.74,4.74,0,0,0-.7-2.82,2.51,2.51,0,0,0-2.18-1,3,3,0,0,0-2.4,1.09,4.64,4.64,0,0,0-.91,3.05V758h-3.69v-7.72a4.75,4.75,0,0,0-.72-2.82,2.54,2.54,0,0,0-2.21-1,3,3,0,0,0-2.38,1.09,4.7,4.7,0,0,0-.91,3.05V758Z"/><path d="M924,758.33a5.15,5.15,0,0,1-4.13-1.67,7.28,7.28,0,0,1-1.46-4.89V743.7H922v7.72a4.54,4.54,0,0,0,.75,2.82,2.77,2.77,0,0,0,2.36,1,3.23,3.23,0,0,0,2.52-1.09,4.37,4.37,0,0,0,1-3.06v-7.37h3.69V758h-3.22l-.29-2.42a5,5,0,0,1-1.92,2A5.57,5.57,0,0,1,924,758.33Z"/><path d="M936.12,758V743.7h3.29l.34,2.68a5.81,5.81,0,0,1,5.27-3v3.88h-1a5.89,5.89,0,0,0-2.16.38,3,3,0,0,0-1.48,1.29,5.31,5.31,0,0,0-.53,2.57V758Z"/><path d="M952.43,758.33a6.88,6.88,0,0,1-3-.59,4.05,4.05,0,0,1-1.76-1.57,4.21,4.21,0,0,1-.57-2.16,3.91,3.91,0,0,1,1.55-3.22,7.37,7.37,0,0,1,4.67-1.24h3.62v-.39a2.62,2.62,0,0,0-.83-2.16,3.18,3.18,0,0,0-2.07-.69,3.62,3.62,0,0,0-2,.53,2.31,2.31,0,0,0-1,1.57h-3.6a5,5,0,0,1,1-2.7,6,6,0,0,1,2.35-1.78,8.09,8.09,0,0,1,3.22-.61,7.07,7.07,0,0,1,4.81,1.52,5.43,5.43,0,0,1,1.76,4.32V758h-3.14l-.34-2.31a5.4,5.4,0,0,1-1.78,1.9A5.17,5.17,0,0,1,952.43,758.33Zm.84-2.88a3,3,0,0,0,2.46-1,5.14,5.14,0,0,0,1.11-2.56H953.7a3.25,3.25,0,0,0-2.1.53,1.66,1.66,0,0,0-.64,1.32,1.5,1.5,0,0,0,.64,1.29A2.73,2.73,0,0,0,953.27,755.45Z"/><g id="logo-5"><path id="Tracciato_13-5" data-name="Tracciato 13-5" d="M333.73,857.69c-.52-4.21-5.64-10.19-5.64-10.19l1.85-2.21-4.2-4.39L324,843l-.31.34.23-.26-4.75-4.84a18.21,18.21,0,0,1,4.5-3.45,2.7,2.7,0,0,1,3.6.44c1.24,1.21-.06,3.62-.06,3.62,2.57,2.74,4,4.12,4,4.12a13.25,13.25,0,0,0,1.91-4.23,8.36,8.36,0,0,0-3-8.54,7.35,7.35,0,0,0-5.81-1.47c-3.92.61-9.4,5.53-9.4,5.53l-2.35-1.79-4.12,4,2,1.94s-.83.85-1.84,1.92h0l-.76.82c-.51.53-1,1.09-1.46,1.57l-.55.59a26.53,26.53,0,0,1-3.61-4.94,3.08,3.08,0,0,1,.22-3.09c1.42-1.42,4-.22,4-.22,2.68-2.68,4-3.92,4-3.92a13.53,13.53,0,0,0-3.81-1.83,8.53,8.53,0,0,0-9.08,3,8.35,8.35,0,0,0-1.26,5.7c.6,4.19,5.49,9.67,5.49,9.67L300,850l4.1,4.47,1.85-2.2,4.81,4.81a28.52,28.52,0,0,1-4.55,3.55,2.72,2.72,0,0,1-3.59-.43c-1.25-1.22.05-3.63.05-3.63-2.58-2.73-4-4.11-4-4.11a13.34,13.34,0,0,0-1.9,4.23,8.34,8.34,0,0,0,3,8.54,7.37,7.37,0,0,0,5.8,1.46c3.11-.49,7.8-4.16,9.61-5.67l2.06,1.85a41.63,41.63,0,0,0,4.44-4.16c-.72-.59-1.42-1.17-2.09-1.76l4.61-5a26.15,26.15,0,0,1,3.54,5,2.89,2.89,0,0,1-.22,3.14c-1.4,1.47-3.87.1-3.87.1-2.74,2.63-4.06,4-4.06,4a11.78,11.78,0,0,0,3.5,1.77c6.05,1.73,9-2.61,9-2.61a8.17,8.17,0,0,0,1.71-5.81M315,852.82c-3.06-2.92-5-5.07-5-5.07l3.1-3.39h0a22.73,22.73,0,0,1,1.88-1.92l5,5.08h0Z" style="fill:#840021"/></g><path d="M267.22,803.61V783.48h3.69v20.13Z"/><path d="M280.78,799.37a7.84,7.84,0,0,1-1.93-.23l-1.06,1.07a5.51,5.51,0,0,0,1.32.43c.9.16,1.8.27,2.71.35a7.36,7.36,0,0,1,4.15,1.35,3.73,3.73,0,0,1,1.29,3,4.59,4.59,0,0,1-.69,2.41,4.93,4.93,0,0,1-2.13,1.86,8.5,8.5,0,0,1-3.69.71,9.49,9.49,0,0,1-4.92-1.14,3.74,3.74,0,0,1-1.87-3.41,4.07,4.07,0,0,1,1.87-3.34,7.46,7.46,0,0,1-1-.55,4.9,4.9,0,0,1-.74-.61v-.66L276.6,798a4.79,4.79,0,0,1-1.67-3.77,5,5,0,0,1,2.7-4.49,6.44,6.44,0,0,1,3.14-.69,6.91,6.91,0,0,1,2.25.34h5.41v2.26l-2.44.17a5.37,5.37,0,0,1-.12,5,4.94,4.94,0,0,1-2,1.87A6.74,6.74,0,0,1,280.78,799.37Zm-3.45,6a1.72,1.72,0,0,0,1,1.6,5.11,5.11,0,0,0,2.43.53,4.12,4.12,0,0,0,2.25-.56,1.71,1.71,0,0,0,.86-1.51,1.67,1.67,0,0,0-.56-1.3,3.76,3.76,0,0,0-2.23-.63c-.73,0-1.46-.14-2.19-.26a3.19,3.19,0,0,0-1.19,1,2,2,0,0,0-.37,1.15Zm3.45-8.84a2.9,2.9,0,0,0,1.86-.6,2.39,2.39,0,0,0,.08-3.38l-.08-.08a2.79,2.79,0,0,0-1.86-.6,2.84,2.84,0,0,0-1.9.6,2.44,2.44,0,0,0,0,3.45h0a3,3,0,0,0,1.9.62Z"/><path d="M291.12,803.61V782.9h3.69v20.71Z"/><path d="M305.52,804a8,8,0,0,1-3.83-.92,6.66,6.66,0,0,1-2.62-2.59,7.7,7.7,0,0,1-.95-3.86,8.16,8.16,0,0,1,.94-4,6.64,6.64,0,0,1,2.59-2.69,7.51,7.51,0,0,1,3.9-1,7.24,7.24,0,0,1,3.72.92,6.56,6.56,0,0,1,2.52,2.52,7,7,0,0,1,.9,3.55v1.39H301.78a3.61,3.61,0,0,0,3.63,3.57h.08a3.38,3.38,0,0,0,1.89-.51,3.14,3.14,0,0,0,1.14-1.31h3.74a6.64,6.64,0,0,1-1.34,2.46,6.44,6.44,0,0,1-2.3,1.74A7.42,7.42,0,0,1,305.52,804Zm0-12a3.93,3.93,0,0,0-2.39.76,3.55,3.55,0,0,0-1.32,2.32h7.11a3.06,3.06,0,0,0-1-2.24,3.37,3.37,0,0,0-2.37-.82Z"/><path d="M321.71,804a8.5,8.5,0,0,1-3.34-.62,5.85,5.85,0,0,1-2.31-1.71,5,5,0,0,1-1-2.54h3.71a2.44,2.44,0,0,0,.94,1.43,3.18,3.18,0,0,0,2,.59,2.66,2.66,0,0,0,1.77-.49,1.43,1.43,0,0,0,.56-1.12,1.23,1.23,0,0,0-.8-1.25,12.58,12.58,0,0,0-2.25-.65c-.62-.14-1.24-.3-1.87-.49a8.44,8.44,0,0,1-1.75-.74,3.93,3.93,0,0,1-1.28-1.15,3,3,0,0,1-.49-1.74,4,4,0,0,1,1.52-3.2,7.49,7.49,0,0,1,8.24-.11,4.7,4.7,0,0,1,1.8,3.25h-3.52c-.22-1.05-1-1.58-2.4-1.58a2.63,2.63,0,0,0-1.59.4,1.19,1.19,0,0,0-.57,1c0,.42.28.76.84,1a13.27,13.27,0,0,0,2.22.69c1,.23,1.91.48,2.75.76a4.6,4.6,0,0,1,2,1.24,3.34,3.34,0,0,1,.75,2.35,4,4,0,0,1-.69,2.39,4.8,4.8,0,0,1-2.08,1.67A8,8,0,0,1,321.71,804Z"/><path d="M332.91,787.13a2.41,2.41,0,0,1-1.66-.6,2,2,0,0,1-.64-1.53,2,2,0,0,1,.64-1.51,2.62,2.62,0,0,1,3.32,0,2,2,0,0,1,.64,1.51,2,2,0,0,1-.64,1.53A2.41,2.41,0,0,1,332.91,787.13Zm-1.84,16.48V789.35h3.68v14.26Z"/><path d="M343.54,804a6.88,6.88,0,0,1-3-.59,4,4,0,0,1-2.33-3.73,3.89,3.89,0,0,1,1.56-3.22,7.28,7.28,0,0,1,4.66-1.24h3.63v-.35a2.61,2.61,0,0,0-.84-2.16,3.05,3.05,0,0,0-2.07-.69,3.54,3.54,0,0,0-2,.53,2.29,2.29,0,0,0-1,1.57h-3.6a4.91,4.91,0,0,1,1.05-2.7,5.6,5.6,0,0,1,2.34-1.77,7.94,7.94,0,0,1,3.23-.62,7,7,0,0,1,4.81,1.52,5.42,5.42,0,0,1,1.76,4.32v8.76H348.6l-.35-2.31a5.09,5.09,0,0,1-4.71,2.68Zm.83-2.88a3.08,3.08,0,0,0,2.47-1,5.11,5.11,0,0,0,1.1-2.57h-3.13a3.28,3.28,0,0,0-2.11.53,1.68,1.68,0,0,0-.63,1.32,1.54,1.54,0,0,0,.63,1.29,2.88,2.88,0,0,0,1.67.43Z"/><path d="M361.13,804a8.5,8.5,0,0,1-3.34-.62,5.82,5.82,0,0,1-2.3-1.71,5,5,0,0,1-1-2.54h3.72a2.38,2.38,0,0,0,.93,1.43,3.25,3.25,0,0,0,2,.59,2.71,2.71,0,0,0,1.77-.49,1.48,1.48,0,0,0,.56-1.12,1.22,1.22,0,0,0-.81-1.25,11.93,11.93,0,0,0-2.24-.65c-.62-.14-1.24-.3-1.88-.49a8.92,8.92,0,0,1-1.74-.74,3.82,3.82,0,0,1-1.28-1.15,3,3,0,0,1-.49-1.74,4,4,0,0,1,1.51-3.2,7.56,7.56,0,0,1,8.3-.11,4.77,4.77,0,0,1,1.8,3.25h-3.49c-.21-1.05-1-1.58-2.39-1.58a2.66,2.66,0,0,0-1.6.4,1.21,1.21,0,0,0-.56,1c0,.42.28.76.84,1a12.06,12.06,0,0,0,2.21.69c1,.23,1.92.48,2.76.76a4.6,4.6,0,0,1,2,1.24,3.34,3.34,0,0,1,.75,2.35,4.08,4.08,0,0,1-.7,2.39,5,5,0,0,1-2.07,1.67A8.09,8.09,0,0,1,361.13,804Z"/></svg>